<svg width="72" height="73" viewBox="0 0 72 73" fill="none" xmlns="http://www.w3.org/2000/svg">
<path d="M0 22.4859V51.774H16.678V27.774C16.678 18.0113 23.5932 16.791 27.661 16.791H67.9322V0.112997C57.7627 0.112983 35.3898 -0.293793 21.1525 0.519777C7.1218 1.32155 0 18.0113 0 22.4859Z" fill="#7BFFC3"/>
<path d="M19.9322 72.4181V55.3333H47.5932C51.661 55.3334 54.5085 51.6724 54.5085 48.0113V39.0621H71.1865V49.6384C71.1865 65.5029 54.5085 72.4181 47.5932 72.4181H19.9322Z" fill="#1AAEFC"/>
<path d="M52.8813 16.6893V0.0112915H72L67.9322 16.6893H52.8813Z" fill="#00CCBF"/>
<path d="M14.2373 72.4181L17.0848 55.3333H36.2034V72.4181H14.2373Z" fill="#46E6F7"/>
<path d="M32.5424 25.2316L26.0339 45.1638H41.0848L47.5932 25.2316H32.5424Z" fill="#006E90"/>
</svg>
