<svg width="236" height="175" viewBox="0 0 236 175" fill="none" xmlns="http://www.w3.org/2000/svg">
<g clip-path="url(#clip0)">
<path d="M170.779 0.321009L4.98636 51.8171C1.24831 52.9781 -0.840385 56.9485 0.321135 60.685L30.1473 156.635C31.3088 160.371 35.2807 162.459 39.0188 161.298L204.812 109.802C208.55 108.641 210.638 104.671 209.477 100.934L179.651 4.98439C178.489 1.24782 174.517 -0.840048 170.779 0.321009Z" fill="url(#paint0_linear)"/>
<path d="M169.921 1.83626L7.78642 52.1959C4.04836 53.3569 1.95966 57.3272 3.12118 61.0638L31.7428 153.139C32.9044 156.875 36.8763 158.963 40.6143 157.802L202.749 107.442C206.487 106.281 208.575 102.311 207.414 98.5745L178.792 6.49963C177.631 2.76306 173.659 0.675202 169.921 1.83626Z" fill="white"/>
<path d="M181.015 13.6511L5.34448 68.2153L10.0524 83.3603L185.723 28.7962L181.015 13.6511Z" fill="#1AAEFC"/>
<path d="M86.2954 122.069L41.6611 135.932L43.697 142.481L88.3313 128.618L86.2954 122.069Z" fill="#BDBDBD"/>
<path d="M115.619 100.842L38.2258 124.88L40.2617 131.43L117.655 107.391L115.619 100.842Z" fill="#E0E0E0"/>
<path d="M228.912 60.2425H54.2411C50.3268 60.2425 47.1536 63.4144 47.1536 67.3272V167.915C47.1536 171.828 50.3268 175 54.2411 175H228.912C232.827 175 236 171.828 236 167.915V67.3272C236 63.4144 232.827 60.2425 228.912 60.2425Z" fill="url(#paint1_linear)"/>
<path d="M226.166 61.4127H56.3852C52.4708 61.4127 49.2976 64.5846 49.2976 68.4974V164.915C49.2976 168.828 52.4708 172 56.3852 172H226.166C230.081 172 233.254 168.828 233.254 164.915V68.4974C233.254 64.5846 230.081 61.4127 226.166 61.4127Z" fill="white"/>
<path d="M98.4037 115.098H93.0437V130.314H98.4037V115.098Z" fill="#E0E0E0"/>
<path d="M105.265 115.098H99.9045V130.314H105.265V115.098Z" fill="#E0E0E0"/>
<path d="M112.125 115.098H106.765V130.314H112.125V115.098Z" fill="#E0E0E0"/>
<path d="M124.132 115.098H118.772V130.314H124.132V115.098Z" fill="#E0E0E0"/>
<path d="M130.993 115.098H125.633V130.314H130.993V115.098Z" fill="#E0E0E0"/>
<path d="M137.854 115.098H132.494V130.314H137.854V115.098Z" fill="#E0E0E0"/>
<path d="M149.86 115.098H144.5V130.314H149.86V115.098Z" fill="#E0E0E0"/>
<path d="M156.721 115.098H151.361V130.314H156.721V115.098Z" fill="#E0E0E0"/>
<path d="M163.582 115.098H158.222V130.314H163.582V115.098Z" fill="#E0E0E0"/>
<path d="M175.589 115.098H170.229V130.314H175.589V115.098Z" fill="#E0E0E0"/>
<path d="M182.449 115.098H177.089V130.314H182.449V115.098Z" fill="#E0E0E0"/>
<path d="M189.31 115.098H183.95V130.314H189.31V115.098Z" fill="#E0E0E0"/>
<path d="M92.9599 90.3849H61.0015V107.904H92.9599V90.3849Z" fill="#1AAEFC"/>
<path opacity="0.1" d="M204.815 147.836H185.228V167.415H204.815V147.836Z" fill="#1AAEFC"/>
<path opacity="0.1" d="M214.608 147.836H195.021V167.415H214.608V147.836Z" fill="#1AAEFC"/>
</g>
<defs>
<linearGradient id="paint0_linear" x1="105.252" y1="161.919" x2="105.965" y2="-0.294347" gradientUnits="userSpaceOnUse">
<stop stop-color="#808080" stop-opacity="0.25"/>
<stop offset="0.53514" stop-color="#808080" stop-opacity="0.12"/>
<stop offset="1" stop-color="#808080" stop-opacity="0.1"/>
</linearGradient>
<linearGradient id="paint1_linear" x1="103785" y1="78012.3" x2="103785" y2="26894.7" gradientUnits="userSpaceOnUse">
<stop stop-color="#808080" stop-opacity="0.25"/>
<stop offset="0.53514" stop-color="#808080" stop-opacity="0.12"/>
<stop offset="1" stop-color="#808080" stop-opacity="0.1"/>
</linearGradient>
<clipPath id="clip0">
<rect width="236" height="175" fill="white"/>
</clipPath>
</defs>
</svg>
