<svg width="134" height="135" viewBox="0 0 134 135" fill="none" xmlns="http://www.w3.org/2000/svg">
<path d="M0 41.8277V96.3362H31.0396V51.6695C31.0396 33.5 43.9096 31.2288 51.4802 31.2288H126.429V0.189286C107.503 0.189259 65.8644 -0.567797 39.3672 0.946348C13.2545 2.43853 0 33.5 0 41.8277Z" fill="#7BFFC3"/>
<path d="M37.0961 134.757V102.96C51.4803 102.96 77.2204 102.96 88.5763 102.96C96.1469 102.961 101.446 96.147 101.446 89.3333V72.678H132.486V92.3616C132.486 121.887 101.446 134.757 88.5763 134.757H37.0961Z" fill="#1AAEFC"/>
<path d="M98.4181 31.0396V0H134L126.429 31.0396H98.4181Z" fill="#00CCBF"/>
<path d="M26.4972 134.757L31.7966 102.96H67.3786V134.757H26.4972Z" fill="#46E6F7"/>
<path d="M60.5649 46.9379L48.4519 84.0339H76.4632L88.5762 46.9379H60.5649Z" fill="#006E90"/>
</svg>
