<svg width="359" height="131" viewBox="0 0 359 131" fill="none" xmlns="http://www.w3.org/2000/svg">
<path d="M0 49.4859V78.774H16.678V54.774C16.678 45.0113 23.5932 43.791 27.661 43.791H67.9322V27.113C57.7627 27.113 35.3898 26.7062 21.1525 27.5198C7.1218 28.3215 0 45.0113 0 49.4859Z" fill="#7BFFC3"/>
<path d="M19.9322 99.4181V82.3333H47.5932C51.661 82.3334 54.5085 78.6724 54.5085 75.0113V66.0621H71.1864V76.6384C71.1864 92.5029 54.5085 99.4181 47.5932 99.4181H19.9322Z" fill="#1AAEFC"/>
<path d="M52.8813 43.6893V27.0113H72L67.9322 43.6893H52.8813Z" fill="#00CCBF"/>
<path d="M14.2373 99.4181L17.0848 82.3333H36.2034V99.4181H14.2373Z" fill="#46E6F7"/>
<path d="M32.5423 52.2316L26.0339 72.1638H41.0847L47.5932 52.2316H32.5423Z" fill="#006E90"/>
<path d="M149.712 62.152C153.616 63.24 156.624 65.192 158.736 68.008C160.912 70.824 162 74.344 162 78.568C162 84.392 159.984 88.936 155.952 92.2C151.984 95.4 146.416 97 139.248 97H114.768C113.232 97 112.016 96.584 111.12 95.752C110.288 94.856 109.872 93.672 109.872 92.2V34.12C109.872 32.648 110.288 31.496 111.12 30.664C112.016 29.768 113.232 29.32 114.768 29.32H138.192C145.168 29.32 150.608 30.888 154.512 34.024C158.48 37.096 160.464 41.416 160.464 46.984C160.464 50.568 159.504 53.672 157.584 56.296C155.728 58.92 153.104 60.872 149.712 62.152ZM119.568 58.6H136.656C146.128 58.6 150.864 55.016 150.864 47.848C150.864 44.264 149.68 41.608 147.312 39.88C145.008 38.152 141.456 37.288 136.656 37.288H119.568V58.6ZM138.192 89.032C143.12 89.032 146.736 88.136 149.04 86.344C151.344 84.552 152.496 81.768 152.496 77.992C152.496 74.152 151.312 71.304 148.944 69.448C146.64 67.528 143.056 66.568 138.192 66.568H119.568V89.032H138.192ZM193.463 49C199.671 49 204.279 50.568 207.287 53.704C210.359 56.84 211.895 61.608 211.895 68.008V92.872C211.895 94.344 211.479 95.496 210.647 96.328C209.815 97.096 208.663 97.48 207.191 97.48C205.783 97.48 204.663 97.064 203.831 96.232C202.999 95.4 202.583 94.28 202.583 92.872V89.32C201.367 92.008 199.543 94.088 197.111 95.56C194.743 96.968 191.959 97.672 188.759 97.672C185.687 97.672 182.871 97.064 180.311 95.848C177.751 94.568 175.735 92.808 174.263 90.568C172.855 88.328 172.151 85.832 172.151 83.08C172.151 79.688 173.015 77.032 174.743 75.112C176.535 73.128 179.447 71.72 183.479 70.888C187.575 70.056 193.175 69.64 200.279 69.64H202.487V66.856C202.487 63.272 201.751 60.68 200.279 59.08C198.807 57.48 196.439 56.68 193.175 56.68C190.935 56.68 188.823 56.968 186.839 57.544C184.855 58.12 182.679 58.952 180.311 60.04C178.583 61 177.367 61.48 176.663 61.48C175.703 61.48 174.903 61.128 174.263 60.424C173.687 59.72 173.398 58.824 173.398 57.736C173.398 56.776 173.655 55.944 174.167 55.24C174.743 54.472 175.639 53.736 176.855 53.032C179.095 51.816 181.719 50.856 184.727 50.152C187.735 49.384 190.647 49 193.463 49ZM190.487 90.472C194.007 90.472 196.887 89.288 199.127 86.92C201.367 84.488 202.487 81.384 202.487 77.608V75.112H200.759C195.767 75.112 191.927 75.336 189.239 75.784C186.551 76.232 184.631 77 183.479 78.088C182.327 79.112 181.751 80.616 181.751 82.6C181.751 84.904 182.583 86.792 184.247 88.264C185.911 89.736 187.991 90.472 190.487 90.472ZM248.102 90.088C249.51 90.216 250.502 90.6 251.078 91.24C251.718 91.816 252.038 92.648 252.038 93.736C252.038 95.016 251.526 96.008 250.502 96.712C249.542 97.352 248.102 97.608 246.182 97.48L243.59 97.288C238.406 96.904 234.534 95.336 231.974 92.584C229.414 89.768 228.134 85.64 228.134 80.2V57.64H222.374C219.558 57.64 218.149 56.392 218.149 53.896C218.149 52.744 218.502 51.848 219.206 51.208C219.974 50.504 221.03 50.152 222.374 50.152H228.134V40.264C228.134 38.792 228.55 37.64 229.382 36.808C230.278 35.976 231.462 35.56 232.934 35.56C234.406 35.56 235.59 35.976 236.486 36.808C237.382 37.64 237.83 38.792 237.83 40.264V50.152H247.334C248.678 50.152 249.702 50.504 250.406 51.208C251.174 51.848 251.558 52.744 251.558 53.896C251.558 55.112 251.174 56.04 250.406 56.68C249.702 57.32 248.678 57.64 247.334 57.64H237.83V80.872C237.83 83.88 238.438 86.088 239.654 87.496C240.934 88.904 242.854 89.704 245.414 89.896L248.102 90.088ZM295.289 49.192C296.761 49.192 297.913 49.608 298.745 50.44C299.641 51.272 300.089 52.424 300.089 53.896V92.968C300.089 94.312 299.641 95.4 298.745 96.232C297.849 97.064 296.665 97.48 295.193 97.48C293.849 97.48 292.761 97.096 291.929 96.328C291.097 95.496 290.681 94.408 290.681 93.064V89.416C289.209 92.104 287.161 94.152 284.537 95.56C281.977 96.968 279.097 97.672 275.897 97.672C264.505 97.672 258.809 91.4 258.809 78.856V53.896C258.809 52.424 259.225 51.272 260.057 50.44C260.953 49.608 262.169 49.192 263.705 49.192C265.177 49.192 266.329 49.608 267.161 50.44C268.057 51.272 268.505 52.424 268.505 53.896V78.76C268.505 82.536 269.273 85.32 270.809 87.112C272.345 88.904 274.713 89.8 277.913 89.8C281.689 89.8 284.697 88.584 286.937 86.152C289.241 83.72 290.393 80.488 290.393 76.456V53.896C290.393 52.488 290.841 51.368 291.737 50.536C292.633 49.64 293.817 49.192 295.289 49.192ZM333.338 49C339.546 49 344.154 50.568 347.162 53.704C350.234 56.84 351.77 61.608 351.77 68.008V92.872C351.77 94.344 351.354 95.496 350.522 96.328C349.69 97.096 348.538 97.48 347.066 97.48C345.658 97.48 344.538 97.064 343.706 96.232C342.874 95.4 342.458 94.28 342.458 92.872V89.32C341.242 92.008 339.418 94.088 336.986 95.56C334.618 96.968 331.834 97.672 328.634 97.672C325.562 97.672 322.746 97.064 320.186 95.848C317.626 94.568 315.61 92.808 314.138 90.568C312.73 88.328 312.026 85.832 312.026 83.08C312.026 79.688 312.89 77.032 314.618 75.112C316.41 73.128 319.322 71.72 323.354 70.888C327.45 70.056 333.05 69.64 340.154 69.64H342.362V66.856C342.362 63.272 341.626 60.68 340.154 59.08C338.682 57.48 336.314 56.68 333.05 56.68C330.81 56.68 328.698 56.968 326.714 57.544C324.73 58.12 322.554 58.952 320.186 60.04C318.458 61 317.242 61.48 316.538 61.48C315.578 61.48 314.778 61.128 314.138 60.424C313.562 59.72 313.273 58.824 313.273 57.736C313.273 56.776 313.53 55.944 314.042 55.24C314.618 54.472 315.514 53.736 316.73 53.032C318.97 51.816 321.594 50.856 324.602 50.152C327.61 49.384 330.522 49 333.338 49ZM330.362 90.472C333.882 90.472 336.762 89.288 339.002 86.92C341.242 84.488 342.362 81.384 342.362 77.608V75.112H340.634C335.642 75.112 331.802 75.336 329.114 75.784C326.426 76.232 324.506 77 323.354 78.088C322.202 79.112 321.626 80.616 321.626 82.6C321.626 84.904 322.458 86.792 324.122 88.264C325.786 89.736 327.866 90.472 330.362 90.472Z" fill="#424242"/>
</svg>
