<svg width="137" height="40" viewBox="0 0 137 40" fill="none" xmlns="http://www.w3.org/2000/svg">
<path d="M22.838 19.398C25.034 20.01 26.726 21.108 27.914 22.692C29.138 24.276 29.75 26.256 29.75 28.632C29.75 31.908 28.616 34.464 26.348 36.3C24.116 38.1 20.984 39 16.952 39H3.182C2.318 39 1.634 38.766 1.13 38.298C0.662 37.794 0.428 37.128 0.428 36.3V3.63C0.428 2.802 0.662 2.154 1.13 1.686C1.634 1.182 2.318 0.929998 3.182 0.929998H16.358C20.282 0.929998 23.342 1.812 25.538 3.576C27.77 5.304 28.886 7.734 28.886 10.866C28.886 12.882 28.346 14.628 27.266 16.104C26.222 17.58 24.746 18.678 22.838 19.398ZM5.882 17.4H15.494C20.822 17.4 23.486 15.384 23.486 11.352C23.486 9.336 22.82 7.842 21.488 6.87C20.192 5.898 18.194 5.412 15.494 5.412H5.882V17.4ZM16.358 34.518C19.13 34.518 21.164 34.014 22.46 33.006C23.756 31.998 24.404 30.432 24.404 28.308C24.404 26.148 23.738 24.546 22.406 23.502C21.11 22.422 19.094 21.882 16.358 21.882H5.882V34.518H16.358ZM47.4477 12C50.9397 12 53.5317 12.882 55.2237 14.646C56.9517 16.41 57.8157 19.092 57.8157 22.692V36.678C57.8157 37.506 57.5817 38.154 57.1137 38.622C56.6457 39.054 55.9977 39.27 55.1697 39.27C54.3777 39.27 53.7477 39.036 53.2797 38.568C52.8117 38.1 52.5777 37.47 52.5777 36.678V34.68C51.8937 36.192 50.8677 37.362 49.4997 38.19C48.1677 38.982 46.6017 39.378 44.8017 39.378C43.0737 39.378 41.4897 39.036 40.0497 38.352C38.6097 37.632 37.4757 36.642 36.6477 35.382C35.8557 34.122 35.4597 32.718 35.4597 31.17C35.4597 29.262 35.9457 27.768 36.9177 26.688C37.9257 25.572 39.5637 24.78 41.8317 24.312C44.1357 23.844 47.2857 23.61 51.2817 23.61H52.5237V22.044C52.5237 20.028 52.1097 18.57 51.2817 17.67C50.4537 16.77 49.1217 16.32 47.2857 16.32C46.0257 16.32 44.8377 16.482 43.7217 16.806C42.6057 17.13 41.3817 17.598 40.0497 18.21C39.0777 18.75 38.3937 19.02 37.9977 19.02C37.4577 19.02 37.0077 18.822 36.6477 18.426C36.3237 18.03 36.1617 17.526 36.1617 16.914C36.1617 16.374 36.3057 15.906 36.5937 15.51C36.9177 15.078 37.4217 14.664 38.1057 14.268C39.3657 13.584 40.8417 13.044 42.5337 12.648C44.2257 12.216 45.8637 12 47.4477 12ZM45.7737 35.328C47.7537 35.328 49.3737 34.662 50.6337 33.33C51.8937 31.962 52.5237 30.216 52.5237 28.092V26.688H51.5517C48.7437 26.688 46.5837 26.814 45.0717 27.066C43.5597 27.318 42.4797 27.75 41.8317 28.362C41.1837 28.938 40.8597 29.784 40.8597 30.9C40.8597 32.196 41.3277 33.258 42.2637 34.086C43.1997 34.914 44.3697 35.328 45.7737 35.328ZM78.1821 35.112C78.9741 35.184 79.5321 35.4 79.8561 35.76C80.2161 36.084 80.3961 36.552 80.3961 37.164C80.3961 37.884 80.1081 38.442 79.5321 38.838C78.9921 39.198 78.1821 39.342 77.1021 39.27L75.6441 39.162C72.7281 38.946 70.5501 38.064 69.1101 36.516C67.6701 34.932 66.9501 32.61 66.9501 29.55V16.86H63.7101C62.1261 16.86 61.3341 16.158 61.3341 14.754C61.3341 14.106 61.5321 13.602 61.9281 13.242C62.3601 12.846 62.9541 12.648 63.7101 12.648H66.9501V7.086C66.9501 6.258 67.1841 5.61 67.6521 5.142C68.1561 4.674 68.8221 4.44 69.6501 4.44C70.4781 4.44 71.1441 4.674 71.6481 5.142C72.1521 5.61 72.4041 6.258 72.4041 7.086V12.648H77.7501C78.5061 12.648 79.0821 12.846 79.4781 13.242C79.9101 13.602 80.1261 14.106 80.1261 14.754C80.1261 15.438 79.9101 15.96 79.4781 16.32C79.0821 16.68 78.5061 16.86 77.7501 16.86H72.4041V29.928C72.4041 31.62 72.7461 32.862 73.4301 33.654C74.1501 34.446 75.2301 34.896 76.6701 35.004L78.1821 35.112ZM104.725 12.108C105.553 12.108 106.201 12.342 106.669 12.81C107.173 13.278 107.425 13.926 107.425 14.754V36.732C107.425 37.488 107.173 38.1 106.669 38.568C106.165 39.036 105.499 39.27 104.671 39.27C103.915 39.27 103.303 39.054 102.835 38.622C102.367 38.154 102.133 37.542 102.133 36.786V34.734C101.305 36.246 100.153 37.398 98.6772 38.19C97.2372 38.982 95.6172 39.378 93.8172 39.378C87.4092 39.378 84.2052 35.85 84.2052 28.794V14.754C84.2052 13.926 84.4392 13.278 84.9072 12.81C85.4112 12.342 86.0952 12.108 86.9592 12.108C87.7872 12.108 88.4352 12.342 88.9032 12.81C89.4072 13.278 89.6592 13.926 89.6592 14.754V28.74C89.6592 30.864 90.0912 32.43 90.9552 33.438C91.8192 34.446 93.1512 34.95 94.9512 34.95C97.0752 34.95 98.7672 34.266 100.027 32.898C101.323 31.53 101.971 29.712 101.971 27.444V14.754C101.971 13.962 102.223 13.332 102.727 12.864C103.231 12.36 103.897 12.108 104.725 12.108ZM126.127 12C129.619 12 132.211 12.882 133.903 14.646C135.631 16.41 136.495 19.092 136.495 22.692V36.678C136.495 37.506 136.261 38.154 135.793 38.622C135.325 39.054 134.677 39.27 133.849 39.27C133.057 39.27 132.427 39.036 131.959 38.568C131.491 38.1 131.257 37.47 131.257 36.678V34.68C130.573 36.192 129.547 37.362 128.179 38.19C126.847 38.982 125.281 39.378 123.481 39.378C121.753 39.378 120.169 39.036 118.729 38.352C117.289 37.632 116.155 36.642 115.327 35.382C114.535 34.122 114.139 32.718 114.139 31.17C114.139 29.262 114.625 27.768 115.597 26.688C116.605 25.572 118.243 24.78 120.511 24.312C122.815 23.844 125.965 23.61 129.961 23.61H131.203V22.044C131.203 20.028 130.789 18.57 129.961 17.67C129.133 16.77 127.801 16.32 125.965 16.32C124.705 16.32 123.517 16.482 122.401 16.806C121.285 17.13 120.061 17.598 118.729 18.21C117.757 18.75 117.073 19.02 116.677 19.02C116.137 19.02 115.687 18.822 115.327 18.426C115.003 18.03 114.841 17.526 114.841 16.914C114.841 16.374 114.985 15.906 115.273 15.51C115.597 15.078 116.101 14.664 116.785 14.268C118.045 13.584 119.521 13.044 121.213 12.648C122.905 12.216 124.543 12 126.127 12ZM124.453 35.328C126.433 35.328 128.053 34.662 129.313 33.33C130.573 31.962 131.203 30.216 131.203 28.092V26.688H130.231C127.423 26.688 125.263 26.814 123.751 27.066C122.239 27.318 121.159 27.75 120.511 28.362C119.863 28.938 119.539 29.784 119.539 30.9C119.539 32.196 120.007 33.258 120.943 34.086C121.879 34.914 123.049 35.328 124.453 35.328Z" fill="#424242"/>
</svg>
