<svg width="136" height="88" viewBox="0 0 136 88" fill="none" xmlns="http://www.w3.org/2000/svg">
<path d="M136 87.0054H0V88H136V87.0054Z" fill="#85848B"/>
<path d="M107.747 69.4427C107.747 70.2078 103.291 72.4383 97.9979 72.4383C92.7047 72.4383 88.5803 70.2078 88.5803 69.4427C88.5803 68.6776 92.8706 68.924 98.1689 68.924C103.467 68.924 107.747 68.6763 107.747 69.4427Z" fill="#504F60"/>
<path opacity="0.2" d="M107.747 69.4427C107.747 70.2078 103.291 72.4383 97.9979 72.4383C92.7047 72.4383 88.5803 70.2078 88.5803 69.4427" fill="black"/>
<path d="M54.4411 55.4035C55.3002 55.5137 56.1916 55.5838 57.0144 55.3166C57.144 55.2764 57.2865 55.1869 57.2736 55.0573C57.2643 55.0101 57.2444 54.9658 57.2153 54.9276C56.9051 54.462 56.6446 53.9652 56.4378 53.4453C56.4296 53.4182 56.4128 53.3945 56.3899 53.3779C56.3631 53.3682 56.3338 53.3682 56.307 53.3779C55.9273 53.4777 55.5995 53.7228 55.2224 53.8279C55.0302 53.8807 54.8295 53.8956 54.6315 53.872C54.4605 53.8525 54.2273 53.7112 54.0718 53.7293C54.1599 54.296 54.375 54.8251 54.4411 55.4035Z" fill="#1AAEFC"/>
<path d="M70.6887 53.9679C71.2549 53.5789 71.8419 53.1704 72.1762 52.5699C72.2001 52.534 72.2139 52.4924 72.2164 52.4493C72.2107 52.407 72.1942 52.3668 72.1684 52.3326C71.85 51.826 71.44 51.3831 70.9595 51.0267C70.7088 51.204 70.4823 51.4132 70.2857 51.6492C70.1432 51.7996 69.7492 52.0382 69.7454 52.2678C69.7454 52.3975 69.8957 52.5479 69.9656 52.6568C70.0602 52.7969 70.1496 52.9395 70.2352 53.0848C70.2844 53.1561 70.734 53.9394 70.6887 53.9679Z" fill="#1AAEFC"/>
<path d="M57.8088 57.1399C57.819 57.2735 57.7823 57.4064 57.7052 57.5159C57.6447 57.5768 57.5698 57.6214 57.4875 57.6456C56.2863 58.0762 54.896 57.5393 53.6974 57.9633C53.4512 58.0502 53.218 58.176 52.9705 58.259C52.6754 58.3478 52.371 58.4018 52.0635 58.4198C51.6397 58.46 51.2134 58.486 50.7884 58.4976C50.4655 58.5205 50.141 58.4921 49.827 58.4133C49.6699 58.3731 49.5231 58.3002 49.3961 58.1995C49.2691 58.0987 49.1647 57.9723 49.0897 57.8285C49.0245 57.6995 49.0115 57.5505 49.0534 57.4122C49.0722 57.3648 49.0989 57.3209 49.1325 57.2825C49.2137 57.1913 49.3091 57.1138 49.4149 57.053L49.8568 56.7677C50.064 56.621 50.2891 56.5016 50.5267 56.4123C50.7016 56.3553 50.8869 56.3307 51.0644 56.2827C51.6851 56.1011 52.1593 55.6083 52.5999 55.135L53.2011 54.4931C53.2573 54.4224 53.3286 54.3653 53.4097 54.3258C53.4931 54.298 53.5818 54.2895 53.6689 54.3011C54.2529 54.3429 54.8168 54.532 55.308 54.851C55.4336 54.9452 55.5691 55.0253 55.7123 55.0896C56.0647 55.2271 56.517 55.1233 56.8422 54.9496C56.9964 54.8666 56.9627 54.8199 57.0275 54.672C57.0923 54.5242 57.2504 54.4295 57.3877 54.5644C57.4292 54.611 57.4585 54.6671 57.4732 54.7278C57.6028 55.1557 57.5536 55.6161 57.5536 56.0648C57.5498 56.135 57.5586 56.2052 57.5795 56.2723C57.6126 56.3399 57.652 56.4042 57.6974 56.4642C57.7066 56.4801 57.7149 56.4966 57.722 56.5135C57.8013 56.7122 57.8311 56.9271 57.8088 57.1399Z" fill="#514E7F"/>
<path d="M57.8088 57.1399C57.819 57.2735 57.7823 57.4065 57.7052 57.516C57.6447 57.5769 57.5698 57.6215 57.4875 57.6456C56.2863 58.0762 54.896 57.5393 53.6974 57.9634C53.4512 58.0503 53.218 58.176 52.9705 58.259C52.6754 58.3478 52.371 58.4018 52.0635 58.4198C51.6397 58.46 51.2134 58.486 50.7884 58.4977C50.4655 58.5205 50.141 58.4921 49.827 58.4134C49.6699 58.3731 49.5231 58.3003 49.3961 58.1995C49.2691 58.0987 49.1647 57.9723 49.0897 57.8285C49.0245 57.6996 49.0115 57.5505 49.0534 57.4122C49.0722 57.3648 49.0989 57.321 49.1325 57.2825C49.2024 57.4291 49.253 57.6236 49.297 57.6936C49.3565 57.7974 49.4375 57.8873 49.5344 57.9573C49.6314 58.0273 49.7422 58.0758 49.8594 58.0995C50.0348 58.1103 50.2106 58.0879 50.3777 58.0334C51.4661 57.7637 52.6232 57.7598 53.6689 57.3513C54.0278 57.2099 54.3699 57.0219 54.747 56.9363C55.124 56.8507 55.5244 56.874 55.9131 56.8416C56.5273 56.7923 57.1221 56.6069 57.7272 56.5096C57.8053 56.7099 57.8334 56.9263 57.8088 57.1399Z" fill="#464353"/>
<path d="M73.4395 53.8888C73.3825 54.3453 73.0936 54.7382 72.7761 55.0715C72.4586 55.4048 72.0997 55.7043 71.847 56.0882C71.5361 56.5641 71.3961 57.1542 70.9918 57.5562C70.8367 57.7024 70.6623 57.8267 70.4735 57.9257C70.2621 58.0506 70.0385 58.1536 69.8062 58.2331C69.2024 58.4263 68.5519 58.3822 67.9209 58.3355C67.716 58.3336 67.5132 58.2945 67.3223 58.2201C67.2353 58.1759 67.1521 58.1248 67.0735 58.0671C66.9153 57.9696 66.7821 57.8364 66.6847 57.6781C66.6369 57.592 66.6235 57.491 66.6472 57.3954C66.6832 57.2901 66.7452 57.1955 66.8273 57.1204C66.9693 56.9726 67.1217 56.8353 67.2834 56.7094C67.5052 56.5661 67.7051 56.3913 67.8768 56.1906C67.9822 56.032 68.0598 55.8566 68.1062 55.6719C68.198 55.3483 68.254 55.0157 68.2733 54.6798C68.2726 54.4567 68.2957 54.2341 68.342 54.0159C68.4379 53.6735 68.6919 53.3675 68.6634 53.0135C68.6518 52.9628 68.6564 52.9097 68.6763 52.8617C68.7065 52.8242 68.7485 52.7981 68.7955 52.7878C68.9936 52.7088 69.2024 52.6603 69.4149 52.6439C69.5215 52.6365 69.6284 52.6529 69.7279 52.6919C69.8274 52.731 69.917 52.7916 69.9902 52.8695C70.0783 52.9758 70.1366 53.1289 70.2662 53.1704C70.3304 53.1879 70.3978 53.1906 70.4632 53.1781C70.7819 53.1457 71.1188 53.1055 71.3702 52.8993C71.4864 52.795 71.5798 52.6678 71.6444 52.5256C71.7091 52.3835 71.7437 52.2295 71.746 52.0733C71.746 51.9553 71.6928 51.8321 71.8755 51.8139C72.0129 51.7958 72.1217 51.9436 72.1917 52.0344C72.4444 52.3728 72.7035 52.7269 72.7981 53.1392C72.8349 53.1249 72.874 53.1175 72.9134 53.1172C72.9943 53.1165 73.0741 53.1353 73.146 53.1721C73.218 53.2089 73.28 53.2626 73.3268 53.3286C73.43 53.4959 73.47 53.6946 73.4395 53.8888Z" fill="#514E7F"/>
<path d="M73.4396 53.8888C73.3826 54.3453 73.0936 54.7382 72.7761 55.0715C72.4587 55.4048 72.0998 55.7043 71.8471 56.0882C71.5361 56.5641 71.3962 57.1542 70.9919 57.5562C70.8367 57.7024 70.6623 57.8267 70.4736 57.9258C70.2622 58.0506 70.0386 58.1536 69.8063 58.2331C69.2025 58.4263 68.552 58.3822 67.921 58.3355C67.7161 58.3336 67.5133 58.2945 67.3223 58.2201C67.2354 58.1759 67.1522 58.1248 67.0735 58.0671C66.9154 57.9696 66.7822 57.8364 66.6848 57.6781C66.8063 57.6196 66.9388 57.5878 67.0735 57.5847C67.3534 57.6003 67.5582 57.8648 67.8264 57.9465C68.2086 58.0619 68.5896 57.7922 68.977 57.7001C69.2297 57.6405 69.4953 57.656 69.7454 57.5704C69.9538 57.4898 70.1464 57.373 70.3142 57.2255C70.5443 57.0608 70.749 56.8634 70.9219 56.6393C71.0655 56.4153 71.1849 56.1766 71.2783 55.9274C71.4829 55.4497 71.7237 54.9884 71.9987 54.5476C72.0394 54.4778 72.0886 54.4133 72.1451 54.3556C72.206 54.2999 72.2747 54.261 72.3434 54.2117C72.6025 54.0159 72.7101 53.693 72.8008 53.3766C72.8253 53.2804 72.8596 53.187 72.9031 53.0977C72.984 53.097 73.0637 53.1159 73.1357 53.1527C73.2077 53.1895 73.2697 53.2432 73.3165 53.3091C73.428 53.4804 73.4718 53.687 73.4396 53.8888Z" fill="#464353"/>
<path d="M46.2691 13.457C46.5916 13.6989 46.857 14.0088 47.0465 14.3647C47.2279 14.7201 48.2736 17.4771 48.2127 17.8778C48.5535 17.5341 49.8972 17.4784 50.2419 17.1347C50.3857 16.9908 51.1619 16.2723 51.2785 16.1051C51.3951 15.9378 52.2607 15.5863 52.3553 15.41C52.709 14.7758 49.8467 12.3728 50.2134 11.7465C50.2337 11.7177 50.2441 11.6831 50.2432 11.6479C50.2348 11.6184 50.2182 11.5918 50.1952 11.5714C49.9607 11.3315 49.6497 11.1824 49.3672 11.0047C49.0848 10.827 48.8126 10.5794 48.7362 10.2526C48.4668 10.3767 48.2195 10.544 48.0041 10.7479C47.4789 11.1984 46.9627 11.6579 46.4557 12.1265C46.2574 12.3106 45.8739 12.5557 45.7819 12.8189C45.673 13.1016 46.0799 13.3027 46.2691 13.457Z" fill="#A1616A"/>
<path d="M50.9026 12.4364C50.4634 12.7318 50.053 13.0678 49.6768 13.4401C49.3217 13.7916 48.9849 14.1988 48.8993 14.6902C48.8631 14.8835 48.8682 15.0793 48.8384 15.2751C48.7089 16.1245 47.9755 16.747 47.6515 17.5419C47.5577 17.7873 47.4887 18.0414 47.4455 18.3006C47.3545 18.7918 47.3046 19.2898 47.2965 19.7893C47.2887 20.273 47.763 20.6063 47.9366 21.0576C48.1102 21.5089 48.1569 21.9731 48.245 22.4361C48.4108 23.3101 48.7153 24.153 49.0224 24.9908C49.6612 26.757 51.7319 31.6395 52.3707 33.4071C54.3286 32.9156 59.5401 31.786 61.2738 30.7499C61.8517 30.4049 57.2634 26.5132 57.8815 26.2448C57.9168 26.2393 57.9504 26.2256 57.9796 26.2049C58.0087 26.1842 58.0327 26.157 58.0495 26.1254C58.0664 26.0938 58.0756 26.0588 58.0766 26.023C58.0776 25.9872 58.0702 25.9517 58.0552 25.9193C57.4371 23.2142 55.5038 20.9914 54.6266 18.3576C54.3221 17.4434 53.7753 16.6627 53.3606 15.7938C52.9849 15.0067 52.784 14.1365 52.3344 13.3883C52.2496 13.2341 52.1387 13.0959 52.0066 12.9798C51.8944 12.8937 51.7732 12.8202 51.645 12.7606C51.3885 12.6361 51.1501 12.5622 50.9026 12.4364Z" fill="#514E7F"/>
<path d="M46.3726 13.1496C48.065 13.1496 49.437 11.7765 49.437 10.0826C49.437 8.38881 48.065 7.01569 46.3726 7.01569C44.6801 7.01569 43.3081 8.38881 43.3081 10.0826C43.3081 11.7765 44.6801 13.1496 46.3726 13.1496Z" fill="#A1616A"/>
<path d="M49.4902 11.5234C49.643 11.3824 49.8348 11.2911 50.0405 11.2615C50.2461 11.2318 50.4559 11.2653 50.6422 11.3574C50.8495 11.4651 51.0309 11.6829 50.9842 11.9112L52.5042 11.9345C52.7461 11.9279 52.9879 11.9501 53.2246 12.0006C53.4628 12.0525 53.6754 12.186 53.8258 12.378C53.844 12.4027 53.8647 12.4325 53.8958 12.4364C53.9211 12.4368 53.9458 12.4285 53.9658 12.413C54.1996 12.2957 54.463 12.2505 54.7225 12.2833C55.544 12.3365 56.3033 12.7476 56.9473 13.2611C57.0634 13.341 57.1536 13.4533 57.2065 13.584C57.2596 13.7565 57.1961 13.9731 57.336 14.0963C57.336 15.5228 57.8258 16.8559 58.1524 18.2461C58.2107 18.4938 58.4478 18.7129 58.6124 18.9074C58.8157 19.1231 58.9817 19.3712 59.1035 19.6414C59.3807 20.3625 58.9985 21.2106 59.268 21.9342C59.382 22.2402 59.6023 22.4918 59.7863 22.7577C60.0289 23.0646 60.1822 23.4326 60.2295 23.821C60.2411 23.9948 60.2191 24.1699 60.2295 24.3398C60.2468 24.5734 60.2903 24.8044 60.359 25.0284C60.4696 25.4468 60.5854 25.8648 60.7063 26.2824C60.9033 26.9567 61.1598 27.6842 61.7636 28.0434C60.3059 28.2911 58.7691 28.5336 57.3801 28.0266C57.1863 27.9604 57.0024 27.8684 56.8333 27.753C56.3318 27.395 56.0895 26.7829 55.8731 26.2046C55.6321 25.5562 55.3872 24.8961 55.338 24.2062C55.3385 23.9868 55.3075 23.7684 55.246 23.5578C55.1047 23.1817 54.7277 22.9548 54.3856 22.746C53.9993 22.5341 53.6494 22.2618 53.349 21.9394C53.2 21.777 53.0858 21.5857 53.0136 21.3773C52.9414 21.169 52.9126 20.948 52.9292 20.7282C52.9551 20.5142 53.0393 20.308 53.0471 20.0927C53.0549 19.8774 52.959 19.6311 52.7529 19.574C51.6917 19.2524 51.1851 17.9945 50.9493 16.9104C50.8475 16.35 50.8019 15.7809 50.8132 15.2115L50.7989 14.1054C50.6525 13.972 50.5347 13.8102 50.4527 13.6299C50.3708 13.4495 50.3263 13.2543 50.3221 13.0562C50.3362 12.9407 50.334 12.8237 50.3156 12.7087C50.2644 12.5682 50.1809 12.4416 50.072 12.3391C49.8377 12.0985 49.6415 11.8234 49.4902 11.5234Z" fill="#464353"/>
<path d="M46.2261 15.03C46.1911 15.3724 46.2688 15.7238 46.1924 16.0597C46.1626 16.1894 46.1108 16.319 46.0732 16.4396C45.9583 16.9231 46.008 17.431 46.2144 17.883C46.4205 18.3305 46.6673 18.7581 46.9517 19.1603C47.0479 19.2977 47.1271 19.4462 47.1875 19.6026C47.2365 19.7668 47.267 19.936 47.2782 20.107C47.3533 20.7937 47.4736 21.4748 47.6384 22.1456C47.7836 22.7266 49.4318 27.6933 49.8153 28.1537C49.8849 28.2556 49.9905 28.3274 50.1108 28.3547C50.1975 28.358 50.2838 28.3402 50.3621 28.3028L51.1396 28.0046C51.2057 27.9843 51.267 27.9508 51.3197 27.906C51.3926 27.8208 51.4321 27.7121 51.4311 27.6C51.4869 26.9671 49.8348 21.9653 49.6248 21.3675C48.9899 19.5623 48.1451 17.822 47.7317 15.9533C47.6164 15.4346 47.5555 14.6358 47.1759 14.2221C47.0191 14.0509 47.0722 14.1235 46.8843 14.213C46.7894 14.2543 46.6976 14.3024 46.6096 14.357C46.4996 14.4335 46.4081 14.5336 46.3418 14.6501C46.2754 14.7665 46.2359 14.8963 46.2261 15.03Z" fill="#464353"/>
<path d="M48.5856 18.4549C48.7942 19.5584 49.0093 20.6594 49.2231 21.763L52.2656 20.9655C52.2902 20.6465 52.1205 20.3508 52.0064 20.0577C51.7291 19.3613 51.7227 18.5858 51.4985 17.87C51.3287 17.3253 51.0333 16.8248 50.8739 16.2762C50.7819 15.9572 50.7353 15.6278 50.6446 15.3049C50.5473 14.9878 50.4278 14.678 50.287 14.3777C50.1162 13.9422 49.8934 13.529 49.6235 13.147C49.2348 13.2923 48.8202 13.4609 48.5986 13.8123C48.4849 14.0103 48.4201 14.2326 48.4094 14.4607C48.3563 15.1441 48.6038 15.8314 48.5221 16.511C48.4381 17.1581 48.4595 17.8146 48.5856 18.4549Z" fill="#1AAEFC"/>
<path d="M52.3161 33.1347C52.4871 33.7831 52.2396 34.4652 52.0375 35.1071C51.7332 36.074 51.5257 37.0688 51.4181 38.0768C51.4049 38.3333 51.3534 38.5864 51.2652 38.8277C51.1693 39.0442 51.0061 39.2271 50.8946 39.4333C50.5888 39.9753 50.5966 40.6367 50.6627 41.2566C50.7067 41.6651 50.7728 42.0723 50.8545 42.4743C50.9542 42.9658 51.0773 43.4793 50.9335 43.9591C51.1745 43.906 51.3378 44.2185 51.3222 44.4636C51.3067 44.7087 51.2276 44.9823 51.3456 45.1937C51.6436 45.3026 51.6462 45.7124 51.6371 46.0301C51.642 46.581 51.7116 47.1295 51.8444 47.6641C52.2953 49.8341 52.7739 51.998 53.2801 54.1559C54.375 54.4957 55.6539 54.8497 56.6983 54.379C56.8927 54.2921 57.087 54.1533 57.1311 53.9432C57.1425 53.83 57.1283 53.7157 57.0896 53.6087L56.5947 51.8061C56.4742 51.3704 56.3536 50.9204 56.4171 50.473C56.4651 50.1397 56.6102 49.7805 56.4469 49.4861C56.3912 49.385 56.3031 49.3059 56.2383 49.2099C55.9792 48.8299 56.1152 48.3216 56.136 47.8612C56.144 47.7579 56.1371 47.6539 56.1152 47.5526C56.0797 47.4342 56.0301 47.3206 55.9675 47.2141C55.5584 46.4193 55.362 45.532 55.3974 44.6387C55.4129 44.5247 55.3972 44.4086 55.352 44.3028C55.3206 44.2591 55.2924 44.2132 55.2678 44.1653C55.2485 44.0821 55.2581 43.9947 55.295 43.9176C55.1465 43.8049 55.0125 43.6742 54.8959 43.5286C54.9678 43.4839 55.0286 43.4234 55.0737 43.3517C55.1188 43.2801 55.147 43.1991 55.1562 43.1149C55.1655 43.0307 55.1555 42.9455 55.127 42.8658C55.0985 42.786 55.0523 42.7138 54.9918 42.6545C55.0447 42.6439 55.0935 42.6188 55.133 42.582C55.1724 42.5453 55.2009 42.4983 55.2153 42.4463C55.2296 42.3943 55.2293 42.3393 55.2143 42.2875C55.1994 42.2356 55.1703 42.189 55.1305 42.1527C55.067 42.1086 54.9827 42.0891 54.9374 42.023C54.8674 41.927 54.9244 41.7935 54.9814 41.691L55.2834 41.1451C55.5088 40.7392 55.5593 40.2373 55.8017 39.8483C56.1489 39.2816 56.3757 38.65 56.5998 38.025L57.4719 35.6168L58.0589 36.1264C58.2544 36.2759 58.4182 36.4628 58.5409 36.6763C58.6243 36.8872 58.6771 37.1091 58.6977 37.335C58.9128 38.6422 59.7343 39.7756 60.0388 41.0634C60.1062 41.35 60.1515 41.6508 60.3161 41.8959C60.375 41.9712 60.4278 42.051 60.4742 42.1345C60.517 42.262 60.5394 42.3955 60.5402 42.5301C60.5674 42.7934 60.6509 43.0479 60.7851 43.2761C60.9192 43.5044 61.1009 43.7011 61.3177 43.8528C61.6066 44.0512 61.9656 44.1874 62.1224 44.5012C62.1537 44.5984 62.1973 44.6912 62.2519 44.7774C62.3919 44.946 62.6938 44.9655 62.7534 45.1768C62.7871 45.2948 62.7249 45.4362 62.791 45.5399C62.8285 45.588 62.8782 45.6251 62.9348 45.6476L63.7783 46.069C64.7216 46.5411 65.2037 47.6252 65.8995 48.415C66.1398 48.6722 66.3526 48.9538 66.5344 49.2553C66.835 49.7935 66.9737 50.4691 67.4816 50.8115C67.6181 50.8823 67.7424 50.9747 67.8496 51.0851C68.009 51.2952 67.9507 51.5895 67.9649 51.8541C67.9792 52.1186 68.1813 52.4338 68.4327 52.3534C68.3446 52.6738 68.3446 53.012 68.4327 53.3324C69.5363 53.2757 70.5887 52.8491 71.4207 52.1212C71.6669 51.906 71.904 51.631 71.9066 51.3042C71.9104 51.2478 71.8978 51.1915 71.8703 51.1421C71.8205 51.0783 71.7548 51.0287 71.6799 50.9982C70.8907 50.5702 70.6536 49.5782 70.2545 48.7729C69.906 48.0622 69.3903 47.4501 68.9588 46.7901C68.0206 45.3701 67.3805 43.6518 65.9617 42.7142C65.6494 42.508 65.2866 42.3252 65.1298 41.9841C65.043 41.7935 65.0326 41.5756 64.964 41.3785C64.8953 41.1814 64.7307 40.9894 64.5208 40.9894C64.6374 40.7041 64.6141 40.3566 64.6219 40.048C64.6298 39.911 64.6141 39.7737 64.5752 39.6421C64.5213 39.5005 64.4513 39.3656 64.3666 39.2401C63.9964 38.6128 63.8113 37.8934 63.8328 37.1652C63.8431 36.7904 63.9092 36.4039 63.7965 36.046C63.7395 35.8658 63.6397 35.7011 63.571 35.5273C63.4675 35.2124 63.4129 34.8835 63.409 34.5521L63.3313 33.3059C63.3196 32.8908 63.2657 32.4781 63.1706 32.0739C62.9115 31.1065 62.6523 27.054 61.7647 26.5975C60.8771 26.141 59.352 29.2598 58.353 29.3208C57.911 29.3392 57.4743 29.4236 57.0572 29.5711C56.3925 29.8201 55.8353 30.2843 55.2924 30.7382L53.455 32.2827C53.0663 32.603 52.745 32.909 52.3161 33.1347Z" fill="#464353"/>
<path d="M43.4971 6.67725C43.9014 6.12481 44.596 5.83173 45.2801 5.80709C45.9643 5.78246 46.6381 5.99773 47.251 6.30248C47.4319 6.40543 47.6252 6.48475 47.8263 6.53849C48.1502 6.60463 48.5104 6.51645 48.8033 6.66817C49.192 6.87437 49.2672 7.39957 49.2335 7.8353C49.1998 8.27103 49.1181 8.75474 49.3501 9.13211C49.4324 9.23973 49.5073 9.35281 49.5742 9.47057C49.674 9.69492 49.6157 9.95429 49.5561 10.1916C49.4045 10.0619 49.319 9.8661 49.1842 9.71567C49.0495 9.56524 48.8149 9.46409 48.6478 9.57691C48.4806 9.68974 48.4832 9.89463 48.4742 10.0788C48.4651 10.2629 48.4184 10.4834 48.2448 10.543C48.1723 10.5595 48.0965 10.5539 48.0272 10.5269C47.9579 10.4998 47.8983 10.4526 47.8561 10.3913C47.5593 10.0282 47.6786 9.44853 47.3844 9.08283C47.2173 8.87534 46.9387 8.77419 46.7845 8.55633C46.6627 8.38515 46.6316 8.16728 46.5253 7.98314C46.4191 7.79899 46.1716 7.66412 46.007 7.79121C45.9509 7.84491 45.904 7.90758 45.8684 7.97665C45.7658 8.12376 45.6166 8.23193 45.4449 8.2837C45.2733 8.33547 45.0892 8.32781 44.9225 8.26195C44.7951 8.18367 44.6572 8.12385 44.513 8.08429C44.4186 8.07956 44.3248 8.10134 44.2422 8.14717C44.1595 8.193 44.0913 8.26106 44.0453 8.34365C43.9523 8.50866 43.9074 8.69645 43.9157 8.88572C43.9157 9.14508 43.9623 9.4213 43.8146 9.62879C43.7584 9.70689 43.6881 9.77376 43.6073 9.8259C43.3909 9.96466 43.089 10.058 42.8894 9.89982C42.8218 9.83677 42.7715 9.75738 42.7434 9.66926C42.7152 9.58115 42.7102 9.48728 42.7288 9.39666C42.7676 9.21616 42.8187 9.03852 42.8817 8.86497C42.9957 8.46296 42.8467 8.01037 42.9711 7.6317C43.1014 7.29068 43.2784 6.96945 43.4971 6.67725Z" fill="#464353"/>
<path d="M45.1389 15.8262C45.1194 15.9208 45.1293 16.019 45.1674 16.1076C45.2059 16.168 45.2583 16.2183 45.3203 16.2542C45.756 16.5259 46.2516 16.6866 46.7637 16.7223C46.8334 16.7235 46.9018 16.7413 46.9633 16.7742C47.0851 16.8546 47.0929 17.0336 47.0475 17.1762C46.987 17.3108 46.9557 17.4566 46.9555 17.6042C46.9931 17.8752 47.3144 17.9932 47.5852 18.0334C47.9649 18.0814 48.3808 18.0567 48.6815 17.8194C48.8851 17.6336 49.0403 17.4007 49.1337 17.1412C49.8774 15.4307 50.1379 13.54 50.8907 11.8347C50.9478 11.7233 50.9859 11.6032 51.0035 11.4793C51.0114 11.4173 51.0026 11.3543 50.978 11.2968C50.9534 11.2394 50.9139 11.1896 50.8635 11.1526C50.7236 11.0657 50.5059 11.1149 50.4113 10.9788C50.3646 10.91 50.3698 10.8167 50.3284 10.7441C50.2415 10.5897 50.0135 10.6144 49.858 10.5249C49.7362 10.4601 49.652 10.3265 49.5159 10.3006C49.4491 10.2968 49.3824 10.3086 49.321 10.3352C49.2596 10.3618 49.2052 10.4023 49.1622 10.4536C48.7203 10.866 48.4884 11.4508 48.2422 12.0033C47.8663 12.8501 47.4261 13.6668 46.9257 14.4464C46.984 14.3557 46.6458 13.6684 46.5137 13.6385C46.2817 13.5918 45.985 13.999 45.8593 14.1508C45.4649 14.6294 45.215 15.2106 45.1389 15.8262Z" fill="#1AAEFC"/>
<path opacity="0.1" d="M49.8464 10.6455C49.7533 10.6471 49.6618 10.6695 49.5786 10.7113C49.4953 10.7531 49.4226 10.813 49.3657 10.8867C49.227 11.067 49.1998 11.3056 49.1648 11.5351C49.0469 12.2623 48.7876 12.9593 48.4016 13.5867" fill="black"/>
<path opacity="0.1" d="M50.5073 11.1629C50.3788 11.1658 50.2533 11.2021 50.1431 11.2682C50.0329 11.3344 49.9418 11.4282 49.8788 11.5403C49.793 11.7442 49.7397 11.9604 49.7207 12.1809C49.6096 12.6697 49.3954 13.1291 49.0923 13.5283" fill="black"/>
<path d="M81.3024 36.5155V34.9048C81.302 33.7192 80.8312 32.5822 79.9933 31.7439C79.1555 30.9057 78.0193 30.4348 76.8346 30.4348H13.279C12.0943 30.4348 10.9581 30.9057 10.1203 31.7439C9.28248 32.5822 8.81162 33.7192 8.81128 34.9048V37.8745L81.3024 36.5155Z" fill="#33323D"/>
<path d="M30.9594 28.5466C30.9594 28.5466 30.778 39.8107 32.7734 43.5169C34.7689 47.2232 35.6241 63.3464 35.6241 63.3464C35.6241 63.3464 56.5428 65.5121 71.12 60.7528C85.6973 55.9935 116.715 54.047 116.715 54.047L111.488 18.7881C111.488 18.7881 85.6649 17.1308 70.9749 24.1426C56.2849 31.1545 30.9594 28.5466 30.9594 28.5466Z" fill="#8DD070"/>
<path opacity="0.1" d="M30.9594 28.5466C30.9594 28.5466 30.778 39.8107 32.7734 43.5169C34.7689 47.2232 35.6241 63.3464 35.6241 63.3464C35.6241 63.3464 56.5428 65.5121 71.12 60.7528C85.6973 55.9935 116.715 54.047 116.715 54.047L111.488 18.7881C111.488 18.7881 85.6649 17.1308 70.9749 24.1426C56.2849 31.1545 30.9594 28.5466 30.9594 28.5466Z" fill="black"/>
<path d="M35.5892 32.6613C35.5892 32.6613 34.9348 41.9556 36.5766 44.9252C38.2183 47.8949 38.2947 61.1522 38.2947 61.1522C38.2947 61.1522 57.1208 62.0262 70.5124 57.4641C83.9041 52.9019 112.045 49.9426 112.045 49.9426L108.847 21.1081C108.847 21.1081 85.5626 20.8682 71.9727 27.29C58.3828 33.7118 35.5892 32.6613 35.5892 32.6613Z" fill="#8DD070"/>
<path opacity="0.1" d="M71.7659 52.1847C74.4446 51.8508 76.0359 46.9191 75.3204 41.1694C74.6048 35.4197 71.8532 31.0294 69.1746 31.3633C66.4959 31.6972 64.9046 36.6289 65.6201 42.3786C66.3357 48.1283 69.0873 52.5186 71.7659 52.1847Z" fill="black"/>
<path opacity="0.2" d="M97.3308 1.61194C97.3308 1.61194 72.2437 7.96629 60.4134 19.1513C48.5831 30.3362 23.6787 35.6324 23.6787 35.6324C23.6787 35.6324 26.9596 46.4075 29.9942 49.3228C33.0289 52.238 38.7846 67.3224 38.7846 67.3224C38.7846 67.3224 59.3574 62.9574 71.7707 53.9472C84.1841 44.937 113.114 33.5575 113.114 33.5575L97.3308 1.61194Z" fill="black"/>
<path d="M23.3015 34.0191C23.3015 34.0191 26.5811 44.7956 29.6131 47.7108C32.6452 50.626 38.4036 65.7092 38.4036 65.7092C38.4036 65.7092 58.9789 61.3454 71.3935 52.3352C83.8082 43.325 112.736 31.9494 112.736 31.9494L96.9523 0C96.9523 0 71.8665 6.35435 60.0362 17.5393C48.2059 28.7243 23.3015 34.0191 23.3015 34.0191Z" fill="#8DD070"/>
<path opacity="0.1" d="M23.3015 34.0191C23.3015 34.0191 26.5811 44.7956 29.6131 47.7108C32.6452 50.626 38.4036 65.7092 38.4036 65.7092C38.4036 65.7092 58.9789 61.3454 71.3935 52.3352C83.8082 43.325 112.736 31.9494 112.736 31.9494L96.9523 0C96.9523 0 71.8665 6.35435 60.0362 17.5393C48.2059 28.7243 23.3015 34.0191 23.3015 34.0191Z" fill="black"/>
<path d="M28.9653 36.5142C28.9653 36.5142 31.1927 45.562 33.6663 47.8833C36.1399 50.2045 40.2747 62.7965 40.2747 62.7965C40.2747 62.7965 58.4593 57.8453 69.8063 49.3901C81.1532 40.935 107.032 29.4881 107.032 29.4881L95.1487 3.01764C95.1487 3.01764 72.9148 9.9387 61.9488 20.225C50.9828 30.5112 28.9653 36.5142 28.9653 36.5142Z" fill="#8DD070"/>
<path opacity="0.1" d="M69.3869 43.9849C71.8339 42.8445 71.8364 37.6619 69.3924 32.4094C66.9484 27.1569 62.9835 23.8234 60.5365 24.9638C58.0894 26.1042 58.0869 31.2868 60.5309 36.5393C62.9749 41.7918 66.9398 45.1253 69.3869 43.9849Z" fill="black"/>
<path opacity="0.1" d="M83.018 38.0963V82.8361C83.018 83.3442 82.918 83.8474 82.7236 84.3168C82.5293 84.7862 82.2445 85.2127 81.8854 85.572C81.5264 85.9312 81.1001 86.2161 80.631 86.4104C80.1619 86.6048 79.6591 86.7047 79.1515 86.7045H12.6791C11.6542 86.7042 10.6714 86.2965 9.94683 85.571C9.22224 84.8456 8.81519 83.8619 8.81519 82.8361V33.586C10.7199 34.2941 10.7199 34.2941 12.6791 34.2344H79.1515C80.1756 34.2344 81.1579 34.641 81.8828 35.3651C82.6077 36.0891 83.0159 37.0713 83.018 38.0963Z" fill="black"/>
<path d="M83.018 38.6656V83.4054C83.0176 84.4315 82.6101 85.4154 81.8851 86.1408C81.16 86.8663 80.1767 87.2738 79.1515 87.2738H12.6791C11.6542 87.2734 10.6714 86.8657 9.94683 86.1403C9.22224 85.4149 8.81519 84.4311 8.81519 83.4054V34.154C10.7199 34.8608 10.7199 34.8608 12.6791 34.8024H79.1515C80.1758 34.8024 81.1583 35.2092 81.8832 35.9335C82.6081 36.6578 83.0163 37.6404 83.018 38.6656Z" fill="#504F60"/>
<path opacity="0.1" d="M82.8287 55.2064V69.514H68.9641C67.085 69.4887 65.2914 68.7239 63.9715 67.385C62.6516 66.0462 61.9116 64.241 61.9116 62.3602C61.9116 60.4794 62.6516 58.6742 63.9715 57.3354C65.2914 55.9965 67.085 55.2317 68.9641 55.2064H82.8287Z" fill="black"/>
<path d="M83.0178 54.8251V69.1353H69.1533C67.2742 69.11 65.4806 68.3452 64.1607 67.0063C62.8408 65.6675 62.1008 63.8623 62.1008 61.9815C62.1008 60.1007 62.8408 58.2955 64.1607 56.9567C65.4806 55.6178 67.2742 54.853 69.1533 54.8277L83.0178 54.8251Z" fill="#33323D"/>
<path opacity="0.1" d="M69.8179 65.1503C71.3573 65.1503 72.6051 63.9014 72.6051 62.3608C72.6051 60.8203 71.3573 59.5714 69.8179 59.5714C68.2786 59.5714 67.0308 60.8203 67.0308 62.3608C67.0308 63.9014 68.2786 65.1503 69.8179 65.1503Z" fill="black"/>
<path d="M70.0071 64.7716C71.5465 64.7716 72.7943 63.5227 72.7943 61.9822C72.7943 60.4416 71.5465 59.1927 70.0071 59.1927C68.4678 59.1927 67.22 60.4416 67.22 61.9822C67.22 63.5227 68.4678 64.7716 70.0071 64.7716Z" fill="#1AAEFC"/>
<path d="M107.084 54.7019C107.194 55.8963 106.291 57.0556 106.554 58.2253C106.611 58.4756 106.719 58.7116 106.757 58.9645C106.866 59.6596 106.453 60.3171 106.058 60.898L102.663 65.883C102.527 66.1021 102.364 66.3034 102.178 66.4821C101.53 67.0605 100.556 67.0008 99.7034 67.1733C99.104 67.2951 98.5381 67.5455 98.0448 67.9073C98.0242 67.9249 98.0111 67.9498 98.0082 67.9768C98.0053 68.0038 98.0128 68.0309 98.0293 68.0525C98.1702 68.2446 98.3569 68.3982 98.5723 68.4995C98.7878 68.6007 99.0252 68.6463 99.2628 68.6322C99.3522 68.7502 99.2628 68.9227 99.1332 69.007C98.9505 69.1367 98.7005 69.1678 98.6642 69.4764C98.6513 69.5841 98.6731 69.6932 98.7264 69.7876C98.8632 69.9973 99.0759 70.1456 99.3198 70.2013C100.495 70.5605 101.765 69.929 102.645 69.0692C103.525 68.2094 104.156 67.124 105.019 66.2487C105.497 65.765 106.04 65.35 106.532 64.8805C107.514 63.9442 108.277 62.8056 109.015 61.6658C109.236 61.3221 109.459 60.9694 109.552 60.5712C109.646 60.1731 109.602 59.7711 109.707 59.386C109.844 58.8802 110.213 58.4782 110.52 58.0542C111.123 57.2242 111.525 56.2088 111.446 55.1869C111.366 54.165 110.733 53.1548 109.769 52.8073C109.47 52.6872 109.14 52.6672 108.829 52.7502C108.434 52.8721 108.143 53.1989 107.873 53.5114L107.225 54.2571C107.064 54.4207 106.936 54.6146 106.849 54.8277C106.808 54.9347 106.798 55.0514 106.821 55.1638C106.844 55.2763 106.899 55.3797 106.979 55.4618" fill="#FBBEBE"/>
<path opacity="0.05" d="M107.084 54.7019C107.194 55.8963 106.291 57.0556 106.554 58.2253C106.611 58.4756 106.719 58.7116 106.757 58.9645C106.866 59.6596 106.453 60.3171 106.058 60.898L102.663 65.883C102.527 66.1021 102.364 66.3034 102.178 66.4821C101.53 67.0605 100.556 67.0008 99.7034 67.1733C99.104 67.2951 98.5381 67.5455 98.0448 67.9073C98.0242 67.9249 98.0111 67.9498 98.0082 67.9768C98.0053 68.0038 98.0128 68.0309 98.0293 68.0525C98.1702 68.2446 98.3569 68.3982 98.5723 68.4995C98.7878 68.6007 99.0252 68.6463 99.2628 68.6322C99.3522 68.7502 99.2628 68.9227 99.1332 69.007C98.9505 69.1367 98.7005 69.1678 98.6642 69.4764C98.6513 69.5841 98.6731 69.6932 98.7264 69.7876C98.8632 69.9973 99.0759 70.1456 99.3198 70.2013C100.495 70.5605 101.765 69.929 102.645 69.0692C103.525 68.2094 104.156 67.124 105.019 66.2487C105.497 65.765 106.04 65.35 106.532 64.8805C107.514 63.9442 108.277 62.8056 109.015 61.6658C109.236 61.3221 109.459 60.9694 109.552 60.5712C109.646 60.1731 109.602 59.7711 109.707 59.386C109.844 58.8802 110.213 58.4782 110.52 58.0542C111.123 57.2242 111.525 56.2088 111.446 55.1869C111.366 54.165 110.733 53.1548 109.769 52.8073C109.47 52.6872 109.14 52.6672 108.829 52.7502C108.434 52.8721 108.143 53.1989 107.873 53.5114L107.225 54.2571C107.064 54.4207 106.936 54.6146 106.849 54.8277C106.808 54.9347 106.798 55.0514 106.821 55.1638C106.844 55.2763 106.899 55.3797 106.979 55.4618" fill="black"/>
<path d="M109.653 85.4492C108.912 85.9018 107.988 85.929 107.127 85.824C106.988 85.8071 106.823 85.7967 106.738 85.9044C106.608 86.06 106.761 86.2934 106.919 86.414C107.428 86.7959 108.025 87.0419 108.654 87.1285C109.217 87.2083 109.784 87.246 110.352 87.2414C111.907 87.2686 113.462 87.2945 114.992 87.0715C115.082 87.0646 115.171 87.039 115.251 86.9963C115.35 86.9269 115.418 86.8226 115.443 86.7045C115.548 86.3051 115.346 85.8771 115.04 85.5996C114.734 85.3221 114.341 85.1678 113.958 85.0187L112.61 84.4934C112.294 84.3703 111.787 84.0435 111.444 84.0694C110.799 84.1161 110.188 85.1354 109.653 85.4492Z" fill="#3F3D56"/>
<path opacity="0.05" d="M109.653 85.4492C108.912 85.9018 107.988 85.929 107.127 85.824C106.988 85.8071 106.823 85.7967 106.738 85.9044C106.608 86.06 106.761 86.2934 106.919 86.414C107.428 86.7959 108.025 87.0419 108.654 87.1285C109.217 87.2083 109.784 87.246 110.352 87.2414C111.907 87.2686 113.462 87.2945 114.992 87.0715C115.082 87.0646 115.171 87.039 115.251 86.9963C115.35 86.9269 115.418 86.8226 115.443 86.7045C115.548 86.3051 115.346 85.8771 115.04 85.5996C114.734 85.3221 114.341 85.1678 113.958 85.0187L112.61 84.4934C112.294 84.3703 111.787 84.0435 111.444 84.0694C110.799 84.1161 110.188 85.1354 109.653 85.4492Z" fill="black"/>
<path d="M110.598 67.5454C110.037 68.2924 109.456 69.1548 109.595 70.0794C109.67 70.5774 109.949 71.017 110.153 71.4774C110.431 72.1024 110.576 72.7742 110.718 73.4433C110.928 74.4211 111.14 75.4015 111.268 76.3948C111.414 77.5166 110.726 80.7625 110.663 81.892C110.647 82.1643 110.615 82.4587 110.426 82.6545C110.352 82.7323 110.253 82.7946 110.22 82.8957C110.2 82.9932 110.216 83.0945 110.265 83.181C110.581 83.8943 111.228 84.426 111.949 84.7294C112.671 85.0329 114.411 85.5568 115.198 85.584C115.302 85.5955 115.406 85.5817 115.504 85.5438C115.608 85.48 115.691 85.3853 115.739 85.2728C116.303 84.1938 115.761 80.3579 115.769 79.1402C115.777 78.1248 116.017 77.1159 115.973 76.1018C115.936 75.2874 115.714 74.4911 115.64 73.6793C115.51 72.3488 115.754 71.0118 115.999 69.6968C116.185 68.6879 116.373 67.679 116.613 66.6831C116.759 66.0749 116.929 65.4615 117.261 64.9337C117.52 64.5148 117.884 64.1647 118.186 63.7665C119.024 62.667 119.396 61.2817 119.222 59.9098C119.204 59.7802 117.279 60.3987 117.109 60.4726C116.416 60.7661 115.779 61.1763 115.225 61.6852C114.779 62.1105 114.428 62.6785 114.038 63.1544C113.486 63.8279 112.941 64.5062 112.403 65.1891C111.789 65.9698 111.187 66.7553 110.598 67.5454Z" fill="#464353"/>
<path opacity="0.05" d="M110.598 67.5001C110.037 68.247 109.456 69.1107 109.595 70.034C109.67 70.5333 109.949 70.9729 110.153 71.4333C110.431 72.0571 110.576 72.7301 110.718 73.3979C110.928 74.377 111.14 75.3574 111.268 76.3495C111.414 77.4725 110.726 80.7171 110.663 81.8466C110.647 82.119 110.615 82.4146 110.426 82.6105C110.352 82.687 110.253 82.7492 110.22 82.8504C110.2 82.9478 110.216 83.0492 110.265 83.1357C110.581 83.8502 111.228 84.3806 111.949 84.6918C112.671 85.0031 114.411 85.2741 115.198 85.3C115.302 85.3115 115.406 85.2977 115.504 85.2598C115.608 85.1968 115.691 85.1025 115.739 84.9901C116.303 83.9112 115.761 80.3216 115.769 79.1026C115.777 78.0859 116.017 77.0783 115.973 76.0629C115.936 75.2485 115.714 74.4523 115.64 73.6417C115.51 72.3099 115.754 70.9729 115.999 69.658C116.185 68.6503 116.373 67.6414 116.613 66.6442C116.759 66.036 116.929 65.4226 117.261 64.8948C117.52 64.4759 117.884 64.1258 118.186 63.7277C119.024 62.6282 119.396 61.2429 119.222 59.871C119.204 59.7413 117.279 60.3599 117.109 60.4338C116.417 60.7282 115.78 61.1387 115.225 61.6476C114.779 62.0716 114.428 62.6396 114.038 63.1156C113.486 63.789 112.941 64.4677 112.403 65.1516C111.789 65.9262 111.187 66.709 110.598 67.5001Z" fill="black"/>
<path d="M104.355 51.0942C106.092 51.0942 107.5 49.6851 107.5 47.9469C107.5 46.2086 106.092 44.7995 104.355 44.7995C102.618 44.7995 101.21 46.2086 101.21 47.9469C101.21 49.6851 102.618 51.0942 104.355 51.0942Z" fill="#FBBEBE"/>
<path d="M107.187 47.8145C107.478 48.2784 107.859 48.6789 108.307 48.9921C108.756 49.3054 109.263 49.525 109.798 49.6379L109.561 50.5002C109.152 51.9812 108.692 53.5477 107.549 54.5748C107.678 54.0729 107.513 53.5374 107.23 53.1016C106.948 52.6659 106.551 52.3235 106.162 51.9851L104.352 50.4159C104.3 50.3734 104.256 50.3215 104.223 50.2629C104.178 50.1523 104.178 50.0286 104.223 49.918C104.453 49.1995 105.112 48.7508 105.648 48.2658C105.917 48.015 106.158 47.7349 106.365 47.4307C106.726 46.9146 106.95 47.4333 107.187 47.8145Z" fill="#FBBEBE"/>
<path d="M100.213 44.7826L100.141 44.1913C100.638 44.3209 101.109 43.8982 101.427 43.4612C101.744 43.0241 102.038 42.5093 102.522 42.3264C103.109 42.106 103.731 42.4561 104.292 42.7518C104.92 43.1006 105.609 43.3252 106.322 43.4132C106.436 43.4169 106.549 43.4353 106.658 43.4676C107.023 43.5973 107.197 44.0564 107.25 44.4727C107.303 44.8889 107.289 45.3311 107.469 45.702C107.598 45.9834 107.839 46.1922 107.987 46.4697C108.376 47.2141 108 48.2321 108.406 48.9622L107.398 48.0376C107.306 47.9533 107.176 47.8651 107.074 47.9364C106.993 47.9935 106.987 48.1167 106.954 48.2152C106.857 48.5031 106.497 48.5887 106.237 48.4746C105.976 48.3605 105.786 48.1128 105.589 47.8872C105.143 47.3607 104.612 46.8977 103.99 46.6733C103.717 46.5713 103.426 46.5285 103.136 46.5478C102.845 46.567 102.562 46.6478 102.305 46.7849C101.835 47.0507 101.49 47.6706 100.914 47.6926C100.123 47.7225 99.7941 46.2493 99.4287 45.667C99.5624 45.5663 99.6565 45.4218 99.6944 45.2586C99.7323 45.0955 99.7116 44.9242 99.636 44.7748C99.6892 44.7528 100.201 44.6918 100.213 44.7826Z" fill="#464353"/>
<path d="M61.3154 26.3822C61.0627 26.6072 60.8291 26.8527 60.617 27.1162C60.4034 27.3834 60.2898 27.7169 60.2956 28.059C60.2968 28.1582 60.3284 28.2547 60.3863 28.3352C60.4159 28.3738 60.4568 28.4021 60.5033 28.4163C60.5497 28.4305 60.5994 28.4298 60.6455 28.4143C60.6975 28.3878 60.7421 28.3485 60.7751 28.3002C60.912 28.1355 61.0573 27.9779 61.2104 27.8282C61.2661 27.7724 61.34 27.714 61.4152 27.7348C61.4488 27.7468 61.4791 27.7668 61.5033 27.7931C61.5904 27.8686 61.6539 27.9677 61.686 28.0784C61.7313 28.2769 61.616 28.4753 61.4851 28.6309C61.3543 28.7865 61.2001 28.9356 61.1469 29.1315C61.1268 29.1832 61.1268 29.2405 61.1469 29.2923C61.172 29.3297 61.207 29.3593 61.248 29.3778C61.4336 29.4801 61.6393 29.5403 61.8507 29.5542C62.062 29.5681 62.2739 29.5353 62.4712 29.4583C62.7304 29.3532 62.961 29.173 63.2279 29.0796C63.3435 29.0479 63.4555 29.0045 63.5622 28.9499C63.6386 28.899 63.7041 28.8336 63.7551 28.7572C63.806 28.6809 63.8413 28.5952 63.859 28.5051C63.8926 28.3251 63.8992 28.1411 63.8784 27.9591C63.8461 27.2547 63.6954 26.5607 63.4327 25.9063C63.4174 25.8641 63.3915 25.8266 63.3575 25.7974C63.3185 25.7736 63.2736 25.7614 63.2279 25.7624C62.8962 25.7273 62.352 25.5575 62.0319 25.6807C61.92 25.7421 61.8234 25.8281 61.7495 25.9322C61.6899 25.9984 61.3154 26.2953 61.3154 26.3822Z" fill="#A1616A"/>
<path d="M61.2103 26.0892C61.2103 25.7727 60.8215 25.0089 61.4396 24.9583C61.4396 24.6199 60.9615 24.4098 61.0509 24.0506C61.0794 23.9313 61.1805 23.834 61.1921 23.7121C61.231 23.3659 60.6064 23.1778 60.7101 22.8458C60.749 22.7162 60.8863 22.6409 60.9161 22.5126C60.9861 22.213 60.451 22.0794 60.4406 21.7721C60.4406 21.6683 60.4989 21.5711 60.4937 21.4673C60.4937 21.3377 60.381 21.2391 60.3188 21.1263C60.1568 20.8371 60.2359 20.3897 59.9404 20.2406C60.1361 20.2574 60.1996 19.9669 60.1192 19.7893C60.0389 19.6116 59.8744 19.4573 59.8731 19.2602C59.8828 19.1887 59.8828 19.1163 59.8731 19.0449C59.8186 18.8556 59.5089 18.84 59.4571 18.6559C59.4504 18.5852 59.4482 18.5141 59.4506 18.4432C59.4299 18.2966 59.2796 18.2033 59.1384 18.1618C58.9916 18.1368 58.8504 18.0864 58.7211 18.0126C58.6304 17.9439 58.5255 17.8298 58.4283 17.883C58.392 17.905 58.3739 17.9465 58.3466 17.9776C58.23 18.1138 58.0072 18.0541 57.8607 17.9543C57.428 17.6599 57.2129 17.1321 57.1209 16.6173C57.0289 16.1024 57.0315 15.5708 56.9161 15.0611C56.881 14.9023 56.8342 14.7462 56.7762 14.5943C56.727 14.4646 56.5689 14.261 56.5585 14.13C56.5352 13.8317 57.152 14.0353 57.3865 14.0652C57.6142 14.0874 57.8393 14.1308 58.059 14.1948C58.2934 14.2835 58.5231 14.3844 58.747 14.497C59.6826 14.9107 60.8125 14.9613 61.564 15.6563C61.8115 15.8846 62.0201 16.1841 62.3415 16.2879C62.4889 16.3162 62.6343 16.3539 62.7768 16.4007C63.1332 16.568 63.1889 17.0413 63.3833 17.3837C63.4444 17.4741 63.4977 17.5695 63.5426 17.669C63.5801 17.7863 63.5976 17.909 63.5945 18.0321L63.6217 18.9308C63.6657 20.4364 63.7098 21.9459 63.5491 23.4424C63.4973 23.9365 63.4195 24.4448 63.566 24.9194C63.6048 25.0491 63.6593 25.171 63.6955 25.302C63.7276 25.4556 63.7441 25.612 63.7448 25.7688L63.7655 26.3511C63.7727 26.3964 63.7625 26.4427 63.737 26.4808C63.7153 26.4984 63.69 26.5109 63.6629 26.5174C63.6357 26.5239 63.6075 26.5243 63.5802 26.5184C62.7704 26.4458 61.9514 25.9893 61.1869 26.2655" fill="#464353"/>
<path d="M98.1679 70.829C103.461 70.829 107.751 70.2083 107.751 69.4427C107.751 68.6771 103.461 68.0564 98.1679 68.0564C92.8751 68.0564 88.5845 68.6771 88.5845 69.4427C88.5845 70.2083 92.8751 70.829 98.1679 70.829Z" fill="#504F60"/>
<path d="M106.413 69.5101C106.244 68.7878 106.139 68.1537 106.139 68.1537C106.139 68.1537 106.178 67.3678 105.826 66.7778V66.5807V65.1282C105.926 64.8645 106.049 64.6098 106.192 64.367C106.452 63.9105 106.192 62.2377 106.192 62.2377C106.192 62.2377 105.225 59.8788 105.459 58.3822C105.694 56.8857 103.471 51.7374 103.471 51.7374C103.485 51.2409 103.555 50.7475 103.68 50.2668C103.704 50.1658 103.713 50.0619 103.709 49.9582C103.709 49.9452 103.709 49.9336 103.709 49.9206C103.709 49.9076 103.709 49.9284 103.709 49.9323C103.675 48.9454 102.895 47.0961 102.895 47.0961L103 43.5714C103 43.5714 103.497 41.4965 102.686 38.7019C102.402 37.728 102.221 36.9486 102.106 36.3469C102.093 36.2795 102.08 36.2172 102.069 36.1511C103.74 35.8917 105.016 35.6842 105.016 35.6842C105.016 35.6842 104.047 31.6265 103.392 30.9159C102.738 30.2052 102.214 27.9734 102.214 27.9734C102.214 27.9734 101.874 25.1088 102.424 24.271C102.975 23.4333 103.053 21.9887 103.053 21.9887C103.053 21.9887 104.308 21.0809 104.467 20.6698C104.625 20.2587 104.885 19.351 104.885 18.8698C104.885 18.3887 104.728 17.9621 104.78 17.7027C104.832 17.4434 104.413 16.485 104.623 16.0285C104.678 15.8883 104.706 15.7393 104.706 15.5889C104.707 15.5846 104.707 15.5803 104.706 15.576C104.708 15.1765 104.671 14.7778 104.596 14.3855C104.233 14.0785 103.809 13.8518 103.352 13.7202L103.325 13.6113L103.254 13.326C103.214 13.2997 103.173 13.2754 103.131 13.2534V13.1496L103.119 12.7372L103.316 11.8113C103.705 10.2007 101.555 9.96078 101.555 9.96078C101.425 9.71373 101.208 9.52349 100.946 9.4265C100.514 9.27477 100.875 11.8489 101.076 12.0201C101.227 12.1498 101.696 12.9512 101.923 13.348L101.959 13.4129C101.924 13.4448 101.891 13.4795 101.861 13.5166L101.942 14.0756L101.955 14.1611C101.813 14.3382 101.697 14.5353 101.612 14.746C101.612 14.746 102.001 15.1765 101.927 15.6538C101.853 16.131 102.047 16.7366 102.056 16.769C102.033 16.7418 101.757 16.4435 101.481 16.5161C101.205 16.5888 100.434 16.8209 100.434 16.8209C100.434 16.8209 99.8588 16.922 99.9158 17.0491C99.9728 17.1762 99.5271 17.7338 99.5271 17.7338L97.98 16.2659C97.9644 16.2218 97.9476 16.1777 97.9346 16.1362C97.8715 15.9245 97.8281 15.7075 97.805 15.4878C97.9737 15.4477 98.1391 15.3952 98.3 15.3309C98.4626 15.275 98.6093 15.1807 98.7276 15.0559C98.8844 14.8705 98.9142 14.6189 98.9777 14.3881C99.0995 13.9368 99.3664 13.5361 99.5517 13.1068C99.8655 12.3815 99.9666 11.5818 99.8433 10.8011C99.8195 10.5605 99.7382 10.3292 99.6061 10.1268C99.3535 9.77923 98.8948 9.63788 98.5618 9.36036C98.2288 9.08285 98.0137 8.65879 97.6249 8.4526C97.2738 8.26456 96.8475 8.28661 96.451 8.35145C95.6766 8.47925 94.9327 8.75013 94.2573 9.15028C94.0318 9.27996 93.783 9.43947 93.5239 9.39149C93.301 9.35129 93.1351 9.17362 92.9952 9.00244C92.9968 8.99536 92.9989 8.98842 93.0017 8.9817C92.9954 8.97538 92.9897 8.96843 92.9848 8.96095C92.8209 9.32514 92.7386 9.72087 92.7438 10.1203C92.7438 10.1825 92.7438 10.25 92.7516 10.3057V10.3706C92.7516 10.3887 92.7516 10.4069 92.7516 10.4237C92.7515 10.4514 92.7476 10.4789 92.7399 10.5054C92.7073 10.5848 92.6578 10.656 92.5948 10.7142C92.5472 10.7683 92.5039 10.826 92.4652 10.8867C92.4652 10.866 92.4782 10.8452 92.486 10.8232C92.3871 10.9676 92.3314 11.1371 92.3253 11.3121C92.318 11.4394 92.3598 11.5647 92.4419 11.6622C92.5195 11.7376 92.6041 11.8053 92.6946 11.8645C92.6638 12.0357 92.6482 12.2093 92.6479 12.3832C92.6508 12.8989 92.7867 13.4051 93.0423 13.8529C93.2979 14.3006 93.6646 14.6748 94.107 14.9392C94.1251 14.982 94.1419 15.0261 94.1588 15.0689C94.357 15.5876 94.506 16.1971 94.44 16.7548C94.44 16.795 94.4283 16.8365 94.4218 16.8767C94.4153 16.9169 94.3829 16.9194 94.3661 16.9415C94.3661 16.9415 91.8096 16.9674 91.2083 16.4228C90.6071 15.8781 89.6897 17.7546 89.6897 17.7546C89.6897 17.7546 88.7736 17.9323 88.5896 17.7546C88.4056 17.5769 87.334 17.73 87.334 17.73C86.895 17.3392 86.3237 17.1305 85.7364 17.1464C85.3805 16.8757 84.9878 16.6574 84.5702 16.498L84.5417 16.4876C84.3574 16.4204 84.1603 16.3956 83.9651 16.415C83.9651 16.415 82.7082 15.3775 82.3415 14.8173C81.9748 14.2571 80.2294 12.1887 80.2216 12.1796V12.0798L80.2022 11.7789C80.1503 11.7871 80.0979 11.7914 80.0454 11.7919C80.0363 11.7621 80.0234 11.727 80.0104 11.6868C79.9099 11.3934 79.7859 11.1085 79.6398 10.8348C79.6398 10.8348 79.6398 10.4549 79.75 10.3589C79.8601 10.2629 79.7046 8.86887 79.7046 8.86887C79.7046 8.86887 78.5721 6.2195 77.5576 8.19713C77.5576 8.19713 75.6398 9.47708 77.2492 10.9684C77.2492 10.9684 77.897 11.2796 77.9826 11.526C78.0422 11.6855 78.2599 12.1329 78.4063 12.4338L78.4724 12.5635L78.4542 12.579L78.4775 12.828L78.4879 12.924C78.1847 13.0965 77.9787 13.2676 78.0292 13.396C78.1185 13.6157 78.1799 13.8458 78.2119 14.0807C78.2119 14.0807 80.438 16.8715 80.7257 18.0632C80.7257 18.0632 86.6952 21.6139 88.6583 21.8668L88.311 23.6369C88.2604 24.1172 88.2345 24.5999 88.2333 25.0828C88.2592 25.4628 87.9975 27.1876 87.9975 27.1876C87.9975 27.1876 87.6567 29.7241 87.369 30.0794C87.0814 30.4348 87.1332 31.9559 87.1332 31.9559C87.0653 32.6841 86.9352 33.4052 86.7445 34.1112C86.4568 35.0747 86.6654 36.2678 86.6654 36.2678C86.6654 36.2678 85.6716 38.5502 88.0532 37.0031C88.0532 37.0031 89.2194 36.9305 90.5695 36.8838C90.5695 36.9279 90.5695 36.9733 90.5695 37.0135C90.5695 37.1872 90.5695 37.3753 90.5605 37.5724C90.5423 38.8796 90.5346 40.6847 90.5942 42.0438C90.6991 44.4533 91.4325 49.2216 91.4325 49.2216V51.622C91.3852 51.8471 91.3617 52.0766 91.3625 52.3067C91.347 53.1513 91.5717 53.9829 92.0104 54.7045L92.1944 56.3022C92.1944 56.3022 92.6246 57.3552 92.6324 57.988C92.6307 58.039 92.6247 58.0898 92.6142 58.1397C92.5975 58.2203 92.5905 58.3026 92.5935 58.3848C92.5689 59.1111 93.0056 60.8488 93.0056 60.8488C93.0056 60.8488 93.0315 62.5982 93.2932 62.7006C93.5174 62.7875 92.9939 63.7082 92.8384 63.9728C92.8343 63.9566 92.8312 63.9401 92.8293 63.9235L92.7969 63.9754C92.7429 64.117 92.7153 64.2673 92.7153 64.4189C92.7006 64.5383 92.72 64.6595 92.7714 64.7683C92.8228 64.8772 92.904 64.9691 93.0056 65.0336C93.5031 65.3383 93.7701 65.5912 93.3476 65.6923C93.1923 65.7165 93.0383 65.749 92.8864 65.7896C92.8864 65.7702 92.8708 65.7494 92.8643 65.7313C92.8047 65.7545 92.755 65.7977 92.7236 65.8535C92.6922 65.9093 92.681 65.9742 92.692 66.0373C92.696 66.243 92.7488 66.4448 92.8462 66.626C93.2647 67.5649 93.555 67.9229 93.555 67.9229L93.7558 67.9008C93.7262 67.9776 93.687 68.0504 93.6392 68.1174C93.5627 68.2261 93.4615 68.3151 93.3438 68.3767C93.234 68.4425 93.1118 68.4844 92.9848 68.4999C92.8429 68.5046 92.7036 68.539 92.5759 68.6012C92.4482 68.6633 92.335 68.7516 92.2437 68.8604C91.9845 69.1989 91.8186 69.6593 92.3344 70.0639L94.2067 70.7123C94.2067 70.7123 97.428 71.1312 97.2569 70.4075C97.0859 69.6839 96.9822 69.0511 96.9822 69.0511C96.9961 68.6093 96.9074 68.1703 96.7231 67.7685C96.6893 67.703 96.6512 67.6397 96.6091 67.5792L96.7231 67.5675C96.7231 67.5675 96.9589 65.9686 97.2725 65.6651C97.345 65.5951 97.3619 65.5354 97.345 65.4991C97.3774 65.4122 97.2945 65.3617 97.1896 65.3318L97.1662 65.3954C97.0636 65.373 96.959 65.3613 96.854 65.3604C96.854 65.3604 96.749 64.5239 97.0898 64.2192C97.1173 64.1844 97.1373 64.1444 97.1487 64.1016C97.1601 64.0587 97.1625 64.014 97.1559 63.9702C97.1584 63.8554 97.1462 63.7408 97.1196 63.6291C97.1162 63.6363 97.1123 63.6432 97.1079 63.6499C96.9369 62.8899 96.3564 61.6826 96.3564 61.6826C96.3564 61.6826 96.3305 60.9227 96.5404 60.6179C96.7503 60.3132 96.5132 56.4837 96.5132 56.4837C96.5132 56.4837 96.5922 54.6332 96.3564 53.7708C96.1206 52.9084 96.644 51.893 96.644 51.893C96.644 51.893 96.644 51.8736 96.644 51.8386V51.8256L96.6142 51.5338C96.6135 51.5398 96.6135 51.5459 96.6142 51.552C96.5611 51.0618 96.4613 50.1735 96.3875 49.7637C96.2825 49.1801 96.4147 46.392 96.4147 46.392L96.8851 45.1989L97.7234 47.2544L98.6136 49.9932C98.6136 49.9932 99.0541 50.5716 99.0645 51.1603C99.0645 51.1889 99.0645 51.2174 99.0645 51.2459C99.0573 51.3066 99.0539 51.3677 99.0541 51.4288C99.0384 51.7748 99.1332 52.1169 99.325 52.4053C99.325 52.4053 99.5608 53.7021 99.9275 54.0276C100.294 54.3531 100.294 54.9911 100.294 54.9911C100.294 54.9911 100.739 56.8689 100.942 57.1957C101.118 57.4732 101.127 58.2331 101.126 58.4704C101.126 58.5132 101.126 58.5379 101.126 58.5379C101.126 58.5379 101.188 59.2096 101.186 59.7724C101.186 59.8425 101.186 59.9099 101.186 59.9734C101.186 59.9687 101.186 59.9639 101.186 59.9592C101.186 60.1129 101.167 60.2662 101.131 60.4156L101.123 60.4416C101.123 60.4092 101.123 60.378 101.133 60.3469C101.041 60.7291 100.998 61.1211 101.003 61.514C100.991 62.1884 101.094 62.9872 101.502 63.4593C102.209 64.271 102.654 64.1699 102.654 64.1699C102.654 64.1699 102.314 65.184 101.894 65.3876C101.879 65.3951 101.864 65.4047 101.85 65.4161C101.85 65.3954 101.843 65.3759 101.84 65.3565C101.793 65.4071 101.758 65.4669 101.735 65.5321C101.713 65.5973 101.704 65.6665 101.71 65.7351C101.681 66.1812 101.962 66.9023 102.229 67.2381C102.328 67.3353 102.449 67.4065 102.582 67.4456C102.561 67.4605 102.539 67.474 102.516 67.4858C102.47 67.5114 102.422 67.5344 102.373 67.5546C102.304 67.5835 102.232 67.6023 102.159 67.6103C102.017 67.6141 101.877 67.6482 101.749 67.7104C101.621 67.7726 101.508 67.8614 101.418 67.9708C101.158 68.308 100.993 68.7684 101.508 69.173L103.381 69.8214C103.381 69.8214 106.581 70.2325 106.413 69.5101Z" fill="url(#paint0_linear)"/>
<path d="M94.1147 70.7084L92.3006 70.06C91.8005 69.6554 91.9598 69.195 92.2125 68.8565C92.2995 68.7486 92.4085 68.6605 92.5324 68.5984C92.6562 68.5362 92.7919 68.5013 92.9304 68.496C93.0532 68.4803 93.1712 68.4383 93.2763 68.3728C93.3913 68.3103 93.4899 68.2214 93.564 68.1135C93.6963 67.9032 93.7677 67.6603 93.77 67.4119C93.77 67.4119 95.7603 66.8283 96.3045 67.4119C96.4017 67.5175 96.4828 67.6368 96.5455 67.7659C96.7263 68.1688 96.8149 68.607 96.8047 69.0485C96.8047 69.0485 96.9058 69.6813 97.0703 70.4049C97.2349 71.1285 94.1147 70.7084 94.1147 70.7084Z" fill="#2D293D"/>
<path d="M102.983 69.8136L101.169 69.1652C100.669 68.7606 100.828 68.3002 101.081 67.963C101.167 67.8547 101.276 67.7663 101.399 67.7041C101.523 67.6418 101.659 67.6072 101.797 67.6025C101.869 67.5952 101.939 67.5763 102.005 67.5467C102.052 67.5265 102.099 67.5036 102.145 67.478C102.651 67.1992 102.638 66.5145 102.638 66.5145C102.638 66.5145 104.627 65.9309 105.173 66.5145C105.246 66.5935 105.31 66.6805 105.363 66.7738C105.704 67.3639 105.666 68.1511 105.666 68.1511C105.666 68.1511 105.767 68.7852 105.926 69.5075C106.084 70.2298 102.983 69.8136 102.983 69.8136Z" fill="#2D293D"/>
<path opacity="0.1" d="M96.3059 67.4106C96.403 67.5162 96.4842 67.6355 96.5469 67.7646L93.5667 68.1108C93.699 67.9006 93.7703 67.6577 93.7727 67.4093C93.7727 67.4093 95.7617 66.827 96.3059 67.4106Z" fill="black"/>
<path opacity="0.1" d="M105.366 66.7765V67.3354C104.902 68.0992 102.659 67.9319 102.007 67.5494C102.055 67.5291 102.102 67.5062 102.147 67.4806C102.654 67.2018 102.641 66.5171 102.641 66.5171C102.641 66.5171 104.63 65.9336 105.175 66.5171C105.248 66.5962 105.312 66.6832 105.366 66.7765Z" fill="black"/>
<path d="M105.719 64.367C105.581 64.6105 105.462 64.8651 105.366 65.1282V67.1318C104.858 67.9682 102.223 67.6894 101.867 67.2329C101.511 66.7764 101.139 65.5886 101.539 65.3824C101.94 65.1762 102.274 64.1647 102.274 64.1647C102.274 64.1647 101.843 64.2658 101.158 63.454C100.474 62.6422 100.678 60.8423 100.805 60.4117C100.932 59.9812 100.805 58.5352 100.805 58.5352C100.805 58.5352 100.831 57.5198 100.628 57.1904C100.426 56.8611 99.9948 54.9859 99.9948 54.9859C99.9948 54.9859 99.9948 54.3517 99.6397 54.0223C99.2847 53.693 99.0566 52.3987 99.0566 52.3987C98.8491 52.0753 98.7598 51.69 98.804 51.3081C98.8791 50.674 98.3725 49.9893 98.3725 49.9893L97.5108 47.2491L96.6996 45.195L96.2435 46.3867C96.2435 46.3867 96.114 49.1762 96.2189 49.7584C96.3239 50.3407 96.4781 51.8891 96.4781 51.8891C96.4781 51.8891 95.9714 52.9032 96.1995 53.7656C96.4275 54.628 96.3446 56.4811 96.3446 56.4811C96.3446 56.4811 96.5727 60.3093 96.3692 60.614C96.1658 60.9188 96.1917 61.68 96.1917 61.68C96.1917 61.68 97.2283 63.9105 96.9018 64.2152C96.5753 64.52 96.6737 65.3564 96.6737 65.3564C96.6737 65.3564 97.3825 65.3564 97.0793 65.6612C96.7761 65.9659 96.5467 67.5636 96.5467 67.5636L93.4823 67.9228C93.4823 67.9228 93.2024 67.5688 92.7968 66.626C92.3913 65.6832 92.872 65.7896 93.2801 65.6871C93.6883 65.5847 93.4304 65.3331 92.9484 65.0283C92.4664 64.7236 92.7463 64.0389 92.7463 64.0389C92.7463 64.0389 93.481 62.7965 93.227 62.6954C92.9731 62.5942 92.9484 60.8435 92.9484 60.8435C92.9484 60.8435 92.4418 58.7687 92.5688 58.2058C92.6958 57.643 92.1632 56.3047 92.1632 56.3047L91.9857 54.7071C91.4435 53.8004 91.2457 52.7287 91.4285 51.6881V49.2242C91.4285 49.2242 90.7184 44.4571 90.6174 42.0476C90.5526 40.5044 90.5707 38.3984 90.5914 37.0848C90.6044 36.3482 90.6174 35.8593 90.6174 35.8593L101.564 34.7181C101.564 34.7181 101.554 35.2238 101.762 36.3456C101.875 36.9473 102.05 37.7267 102.325 38.7006C103.11 41.49 102.629 43.5688 102.629 43.5688L102.527 47.0948C102.527 47.0948 103.489 49.4524 103.287 50.2642C103.165 50.7462 103.096 51.2403 103.083 51.7374C103.083 51.7374 105.236 56.8857 105.008 58.3822C104.78 59.8787 105.717 62.2376 105.717 62.2376C105.717 62.2376 105.973 63.9105 105.719 64.367Z" fill="#464353"/>
<path opacity="0.05" d="M99.4609 51.1551L102.794 50.7103C102.794 50.7103 100.906 52.6387 99.4609 51.1551Z" fill="black"/>
<path opacity="0.1" d="M102.312 47.4515C102.312 47.4515 102.426 48.6316 101.704 49.0751C101.704 49.0751 102.996 48.8728 102.312 47.4515Z" fill="black"/>
<path opacity="0.1" d="M102.107 43.6985C102.107 43.6985 99.3209 45.9938 98.3077 45.8032C97.2944 45.6126 102.107 43.6985 102.107 43.6985Z" fill="black"/>
<path opacity="0.1" d="M95.33 52.2315C95.33 52.2315 93.214 52.7126 93.1505 53.5633C93.087 54.414 95.33 52.2315 95.33 52.2315Z" fill="black"/>
<path opacity="0.05" d="M95.7952 62.8082C95.7952 62.8082 92.8059 63.3659 93.6546 63.7458C94.5033 64.1258 95.8976 64.4305 95.8976 64.4305C95.8976 64.4305 96.8629 64.4811 95.7952 62.8082Z" fill="black"/>
<g opacity="0.05">
<path opacity="0.05" d="M93.0508 64.3501C92.9757 64.3031 92.9121 64.2398 92.8647 64.1648C92.8174 64.0898 92.7876 64.0051 92.7774 63.917L92.7463 63.9702C92.7463 63.9702 92.4678 64.6549 92.9498 64.9583C93.0042 64.9933 93.0573 65.0283 93.1053 65.062C93.1947 65.0452 93.2906 65.0322 93.3826 65.0089C93.7907 64.9077 93.5329 64.6549 93.0508 64.3501Z" fill="black"/>
<path opacity="0.05" d="M96.9017 64.1465C96.9846 64.0713 96.982 63.8768 96.9315 63.6278C96.8019 63.8236 96.7643 64.1297 96.7617 64.3618C96.7932 64.2812 96.8408 64.208 96.9017 64.1465Z" fill="black"/>
<path opacity="0.05" d="M96.4419 51.5298C96.3318 51.8298 96.2638 52.1436 96.2397 52.4623C96.2975 52.2421 96.3752 52.0277 96.4717 51.8216L96.4419 51.5298Z" fill="black"/>
<path opacity="0.05" d="M103.288 50.1993C103.308 50.1082 103.317 50.0151 103.316 49.9218C103.278 50.1112 103.252 50.2862 103.233 50.4405C103.25 50.3614 103.268 50.2862 103.288 50.1993Z" fill="black"/>
<path opacity="0.05" d="M96.3706 60.5466C96.412 60.4843 96.4354 60.2743 96.4457 59.9825C96.352 60.2083 96.3023 60.4499 96.2993 60.6944C96.317 60.6425 96.341 60.5928 96.3706 60.5466Z" fill="black"/>
<path opacity="0.05" d="M96.9924 65.3292C96.8353 65.8378 96.7187 66.3582 96.6438 66.8853L93.5794 67.2394C93.5794 67.2394 93.2995 66.8853 92.8939 65.9426C92.8612 65.8697 92.8322 65.7953 92.8071 65.7195C92.6231 65.8038 92.548 65.9944 92.7916 66.5508C93.1971 67.4896 93.4783 67.8476 93.4783 67.8476L96.5428 67.4922C96.5428 67.4922 96.7708 65.8946 97.074 65.5898C97.2295 65.4433 97.1336 65.3668 96.9924 65.3292Z" fill="black"/>
<path opacity="0.05" d="M92.9497 60.7748C92.9497 60.7748 92.9743 62.5242 93.2283 62.6253C93.3579 62.3362 93.4421 62.0612 93.3281 62.0158C93.0689 61.9147 93.0495 60.164 93.0495 60.164C93.0495 60.164 92.5428 58.0891 92.6698 57.5263C92.7968 56.9635 92.2643 55.6252 92.2643 55.6252L92.0867 54.0275C91.5445 53.1209 91.3467 52.0492 91.5296 51.0086V48.5446C91.5296 48.5446 90.8195 43.7776 90.7184 41.3681C90.6536 39.8249 90.6718 37.7189 90.6925 36.4052C90.6925 36.1679 90.7003 35.9578 90.7042 35.7802L90.6173 35.7892C90.6173 35.7892 90.6031 36.2768 90.5914 37.0147C90.5707 38.3284 90.5513 40.4344 90.6173 41.9763C90.7184 44.3858 91.4272 49.1541 91.4272 49.1541V51.6181C91.2453 52.6584 91.4436 53.7295 91.9857 54.6357L92.1619 56.2334C92.1619 56.2334 92.6944 57.5769 92.5675 58.1358C92.4405 58.6947 92.9497 60.7748 92.9497 60.7748Z" fill="black"/>
<path opacity="0.05" d="M101.971 66.556C101.722 66.1953 101.556 65.7838 101.485 65.3513C101.172 65.634 101.531 66.7311 101.873 67.1668C102.227 67.6233 104.863 67.9021 105.372 67.0643V66.5819C104.681 67.2602 102.305 66.9878 101.971 66.556Z" fill="black"/>
<path opacity="0.05" d="M105.822 63.69C105.683 63.9336 105.564 64.1882 105.467 64.4512V64.8105C105.525 64.6808 105.607 64.507 105.726 64.3021C105.806 64.1024 105.844 63.8883 105.837 63.6732C105.837 63.6732 105.826 63.6848 105.822 63.69Z" fill="black"/>
<path opacity="0.05" d="M102.126 64.0907C102.223 63.8954 102.306 63.6939 102.376 63.4877C102.376 63.4877 101.945 63.5889 101.261 62.7771C100.763 62.187 100.735 61.0718 100.806 60.343C100.676 60.7748 100.475 62.5748 101.16 63.3866C101.607 63.917 101.945 64.057 102.126 64.0907Z" fill="black"/>
<path opacity="0.05" d="M100.805 58.4665C100.849 58.9661 100.866 59.4679 100.855 59.9695C100.868 59.8903 100.885 59.8119 100.907 59.7347C101.037 59.3029 100.907 57.8583 100.907 57.8583C100.907 57.8583 100.933 56.8429 100.729 56.5135C100.526 56.1841 100.102 54.3063 100.102 54.3063C100.102 54.3063 100.102 53.6722 99.7473 53.3428C99.3923 53.0134 99.1642 51.7192 99.1642 51.7192C98.9548 51.3964 98.8632 51.0111 98.9051 50.6286C98.9815 49.9944 98.4749 49.3097 98.4749 49.3097L97.6132 46.5709L96.8021 44.5167L96.3447 45.7098C96.3447 45.7098 96.3447 45.8602 96.3291 46.0988L96.6997 45.1301L97.5108 47.1804L98.3725 49.9192C98.3725 49.9192 98.8791 50.6039 98.8027 51.2381C98.7609 51.6206 98.8524 52.0059 99.0618 52.3287C99.0618 52.3287 99.2899 53.6255 99.6449 53.9523C100 54.2791 99.9987 54.9158 99.9987 54.9158C99.9987 54.9158 100.43 56.7923 100.632 57.1204C100.834 57.4485 100.805 58.4665 100.805 58.4665Z" fill="black"/>
</g>
<path d="M102.932 11.8074L102.742 12.7333L102.753 13.1457L102.761 13.4492L101.704 13.5581L101.586 13.339C101.367 12.9421 100.912 12.1355 100.766 12.011C100.57 11.8476 100.222 9.27217 100.636 9.42519C100.891 9.52386 101.101 9.71377 101.224 9.95818C101.224 9.95818 103.307 10.1968 102.932 11.8074Z" fill="#FFCDD3"/>
<path opacity="0.1" d="M102.761 13.4492L101.704 13.5581L101.586 13.3389C101.728 13.1769 101.922 13.0692 102.135 13.0342C102.347 12.9992 102.566 13.0391 102.752 13.147L102.761 13.4492Z" fill="black"/>
<path d="M103.028 13.951L101.634 14.2739L101.604 14.0664L101.525 13.5075C101.525 13.5075 102.077 12.7709 102.875 13.3234L102.945 13.6074L103.028 13.951Z" fill="#1AAEFC"/>
<path d="M80.4431 11.9086L78.9543 12.7074L78.8247 12.4273C78.6835 12.1304 78.4723 11.683 78.414 11.5196C78.3259 11.2732 77.7052 10.9619 77.7052 10.9619C76.1503 9.4719 78.0032 8.19066 78.0032 8.19066C78.9854 6.21303 80.0764 8.86241 80.0764 8.86241C80.0764 8.86241 80.2293 10.2591 80.1218 10.3524C80.0142 10.4458 80.0142 10.8284 80.0142 10.8284C80.1561 11.1024 80.2762 11.3873 80.3732 11.6804C80.4185 11.8217 80.4431 11.9086 80.4431 11.9086Z" fill="#FFCDD3"/>
<path opacity="0.1" d="M80.4431 11.9086L78.9543 12.7074L78.8247 12.4273C79.0346 12.2509 79.7797 11.6492 80.0246 11.6738C80.1415 11.6884 80.2595 11.6915 80.377 11.6829C80.4185 11.8217 80.4431 11.9086 80.4431 11.9086Z" fill="black"/>
<path d="M80.5948 12.3586L78.922 13.1833L78.8883 12.8241L78.865 12.5751C78.865 12.5751 79.8342 11.7439 80.1206 11.7763C80.2654 11.7973 80.4125 11.7973 80.5573 11.7763L80.5767 12.0772L80.5948 12.3586Z" fill="#1AAEFC"/>
<path d="M98.878 17.9582C98.878 17.9582 91.5855 18.7817 92.9486 18.3381C93.8971 18.0282 94.2742 17.4304 94.3532 16.756C94.418 16.1945 94.2729 15.5889 94.0824 15.0702C93.911 14.61 93.6939 14.1682 93.4345 13.7513C93.4345 13.7513 99.0063 10.6831 97.8932 13.4725C97.7216 13.8944 97.615 14.34 97.5771 14.794C97.5436 15.2451 97.5923 15.6986 97.7209 16.1323C97.9311 16.836 98.3315 17.4679 98.878 17.9582Z" fill="#FFCDD3"/>
<path opacity="0.1" d="M97.8891 13.4686C97.7175 13.8905 97.6109 14.3361 97.573 14.7901C97.0482 15.2323 96.4729 15.2024 95.733 15.2024C95.1655 15.2024 94.5357 15.3399 94.0822 15.0663C93.9108 14.6061 93.6938 14.1643 93.4343 13.7474C93.4343 13.7474 99.0048 10.6792 97.8891 13.4686Z" fill="black"/>
<path d="M95.6346 15.397C97.2999 15.397 98.6498 14.0459 98.6498 12.3793C98.6498 10.7127 97.2999 9.36163 95.6346 9.36163C93.9694 9.36163 92.6194 10.7127 92.6194 12.3793C92.6194 14.0459 93.9694 15.397 95.6346 15.397Z" fill="#FFCDD3"/>
<path opacity="0.1" d="M98.878 17.9582C98.878 17.9582 91.5855 18.7816 92.9486 18.3381C93.8971 18.0282 94.2742 17.4304 94.3532 16.756C94.716 16.367 95.4455 16.0778 95.9081 15.9274C96.3358 15.7834 96.7976 15.7757 97.2298 15.9053C97.3998 15.9566 97.5616 16.0317 97.7105 16.1284C97.923 16.8347 98.3271 17.4681 98.878 17.9582Z" fill="black"/>
<path opacity="0.1" d="M103.028 13.951L101.634 14.2739L101.604 14.0665C101.754 13.8612 101.962 13.7071 102.202 13.6249C102.442 13.5428 102.702 13.5366 102.945 13.6074L103.028 13.951Z" fill="black"/>
<path opacity="0.1" d="M80.5947 12.3586L78.9219 13.1833L78.8882 12.8241C79.43 12.5326 79.9931 12.2824 80.5727 12.0759L80.5947 12.3586Z" fill="black"/>
<path opacity="0.1" d="M101.762 36.3482C98.9362 36.7995 94.9194 37.3753 94.2819 37.1807C93.7519 37.0199 92.0622 37.0368 90.5916 37.0874C90.6045 36.3508 90.6175 35.8619 90.6175 35.8619L101.564 34.7207C101.564 34.7207 101.554 35.2265 101.762 36.3482Z" fill="black"/>
<path d="M104.579 35.6842C104.579 35.6842 95.2795 37.2819 94.2818 36.981C93.284 36.6802 88.1593 37.0057 88.1593 37.0057C85.8529 38.5528 86.8156 36.2704 86.8156 36.2704C86.8156 36.2704 86.6135 35.0786 86.8921 34.1151C87.0792 33.4077 87.207 32.6859 87.2743 31.9572C87.2743 31.9572 87.2238 30.4348 87.5024 30.0794C87.781 29.7241 88.1114 27.1889 88.1114 27.1889C88.1114 27.1889 88.364 25.4641 88.3394 25.0841C88.3148 24.7042 88.4146 23.6382 88.4146 23.6382L88.745 21.8629C86.8441 21.61 81.0664 18.0593 81.0664 18.0593C80.7878 16.8676 78.6342 14.0781 78.6342 14.0781C78.6028 13.8436 78.5432 13.6137 78.4567 13.3934C78.3051 12.9875 80.5856 12.1757 80.5856 12.1757C80.5856 12.1757 82.2831 14.2506 82.6381 14.8134C82.9931 15.3762 84.2086 16.4111 84.2086 16.4111C84.3974 16.3917 84.5882 16.4165 84.7657 16.4837L84.7955 16.4928C85.2029 16.6528 85.5848 16.8712 85.9293 17.1412C86.5007 17.1276 87.055 17.3369 87.4752 17.7248C87.4752 17.7248 88.5118 17.5717 88.6919 17.7494C88.872 17.9271 89.7557 17.7494 89.7557 17.7494C89.7557 17.7494 90.642 15.8729 91.2251 16.4176C91.8082 16.9622 94.2818 16.9363 94.2818 16.9363C94.6109 16.498 95.413 16.1842 95.9144 16.0285C96.3422 15.8852 96.8038 15.8775 97.2361 16.0065C97.4226 16.0622 97.598 16.1499 97.7544 16.2658L99.2588 17.7364C99.2588 17.7364 99.689 17.1775 99.6384 17.0517C99.5879 16.9259 100.145 16.8235 100.145 16.8235C100.145 16.8235 100.88 16.5952 101.158 16.5187C101.437 16.4422 101.692 16.7444 101.716 16.7716C101.706 16.7392 101.516 16.1232 101.586 15.6564C101.656 15.1895 101.281 14.7486 101.281 14.7486C102.168 12.5674 104.17 14.3933 104.17 14.3933C104.17 14.3933 104.398 15.585 104.196 16.0415C103.993 16.498 104.398 17.4615 104.347 17.7157C104.297 17.9699 104.45 18.4004 104.45 18.8828C104.45 19.3652 104.19 20.2769 104.044 20.6828C103.898 21.0887 102.676 22.0016 102.676 22.0016C102.676 22.0016 102.599 23.4476 102.067 24.284C101.534 25.1204 101.868 27.9812 101.868 27.9812C101.868 27.9812 102.375 30.213 103.009 30.9237C103.642 31.6343 104.579 35.6842 104.579 35.6842Z" fill="#3F3D56"/>
<path opacity="0.1" d="M91.0231 18.9969C91.0231 18.9969 90.7445 18.1604 90.4905 18.0891C90.2384 17.9963 89.9929 17.8863 89.7559 17.7597L89.9191 17.4472C89.9191 17.4472 90.8702 17.7066 91.0231 17.988C91.176 18.2694 91.0231 18.9969 91.0231 18.9969Z" fill="black"/>
<path opacity="0.1" d="M85.9292 17.1464C85.8787 17.4057 83.6228 17.6275 83.6228 17.6275L84.7631 16.4837L84.7916 16.4941C85.2005 16.655 85.5837 16.8747 85.9292 17.1464Z" fill="black"/>
<path d="M79.404 13.868C79.5157 13.868 79.6062 13.7775 79.6062 13.6657C79.6062 13.554 79.5157 13.4634 79.404 13.4634C79.2924 13.4634 79.2019 13.554 79.2019 13.6657C79.2019 13.7775 79.2924 13.868 79.404 13.868Z" fill="#575988"/>
<path d="M79.6631 14.2739C79.7747 14.2739 79.8652 14.1834 79.8652 14.0716C79.8652 13.9599 79.7747 13.8693 79.6631 13.8693C79.5514 13.8693 79.4609 13.9599 79.4609 14.0716C79.4609 14.1834 79.5514 14.2739 79.6631 14.2739Z" fill="#575988"/>
<path d="M79.9172 14.6487C80.0289 14.6487 80.1194 14.5582 80.1194 14.4464C80.1194 14.3347 80.0289 14.2441 79.9172 14.2441C79.8056 14.2441 79.7151 14.3347 79.7151 14.4464C79.7151 14.5582 79.8056 14.6487 79.9172 14.6487Z" fill="#575988"/>
<path d="M80.1828 15.0533C80.2945 15.0533 80.385 14.9628 80.385 14.851C80.385 14.7393 80.2945 14.6487 80.1828 14.6487C80.0712 14.6487 79.9807 14.7393 79.9807 14.851C79.9807 14.9628 80.0712 15.0533 80.1828 15.0533Z" fill="#575988"/>
<path d="M104.069 14.9937C104.16 14.9937 104.233 14.92 104.233 14.829C104.233 14.738 104.16 14.6643 104.069 14.6643C103.978 14.6643 103.904 14.738 103.904 14.829C103.904 14.92 103.978 14.9937 104.069 14.9937Z" fill="#575988"/>
<path d="M104.095 15.3685C104.186 15.3685 104.259 15.2947 104.259 15.2038C104.259 15.1128 104.186 15.0391 104.095 15.0391C104.004 15.0391 103.93 15.1128 103.93 15.2038C103.93 15.2947 104.004 15.3685 104.095 15.3685Z" fill="#575988"/>
<path d="M104.117 15.7419C104.208 15.7419 104.281 15.6682 104.281 15.5772C104.281 15.4863 104.208 15.4125 104.117 15.4125C104.026 15.4125 103.952 15.4863 103.952 15.5772C103.952 15.6682 104.026 15.7419 104.117 15.7419Z" fill="#575988"/>
<path opacity="0.1" d="M91.0321 25.87C91.0074 25.8401 96.7204 33.0595 101.155 28.8876C101.158 28.8889 94.1522 29.8395 91.0321 25.87Z" fill="black"/>
<path opacity="0.1" d="M87.7539 29.623C87.7539 29.623 91.1721 29.7164 91.5297 30.7006V31.7251C91.4324 31.7792 91.3229 31.8075 91.2116 31.8075C91.1003 31.8075 90.9908 31.7792 90.8935 31.7251C90.5488 31.5384 88.4821 30.488 87.7539 30.9937V29.623Z" fill="black"/>
<path d="M87.8171 29.623C87.8171 29.623 91.0863 29.7125 91.4284 30.6514V31.6265C91.3353 31.6783 91.2305 31.7055 91.1239 31.7055C91.0174 31.7055 90.9126 31.6783 90.8194 31.6265C90.4903 31.4502 88.5143 30.4478 87.8171 30.9302V29.623Z" fill="#3F3D56"/>
<path opacity="0.1" d="M89.6196 22.1948C89.9689 23.0038 90.4139 23.7679 90.9452 24.4707C91.523 25.2475 92.2232 25.9251 93.0184 26.4769C93.0184 26.4769 89.6766 22.6643 89.6196 22.1948Z" fill="black"/>
<path opacity="0.1" d="M88.5015 18.2202C88.5015 18.2202 89.0716 20.6841 90.541 21.5205L88.5015 18.2202Z" fill="black"/>
<path opacity="0.1" d="M87.6268 18.4691C87.6126 18.4237 87.1202 20.4143 89.5212 21.5205C89.5212 21.5205 88.5015 21.1742 87.6268 18.4691Z" fill="black"/>
<path opacity="0.1" d="M102.553 16.817C102.515 16.817 103.737 17.5951 104.07 17.9582C104.07 17.9582 103.274 16.7651 102.553 16.817Z" fill="black"/>
<path d="M94.8197 15.1143C94.8201 15.1801 94.8342 15.2452 94.8611 15.3053C94.8879 15.3654 94.9269 15.4192 94.9756 15.4635C95.0243 15.5077 95.0817 15.5414 95.1441 15.5623C95.2064 15.5832 95.2725 15.591 95.338 15.585C96.2567 15.6421 97.2142 15.6823 98.0591 15.3257C98.2175 15.2691 98.3598 15.1747 98.4737 15.0508C98.624 14.8653 98.6538 14.6137 98.7147 14.3829C98.8339 13.9316 99.0879 13.5309 99.2706 13.1017C99.5797 12.3765 99.6833 11.5801 99.5699 10.7998C99.546 10.5607 99.4671 10.3303 99.3393 10.1268C99.0957 9.77794 98.6512 9.63659 98.3286 9.35907C98.0059 9.08156 97.7986 8.6575 97.4216 8.45131C97.0821 8.26197 96.6661 8.28532 96.2839 8.35016C95.532 8.47794 94.8115 8.74866 94.1614 9.14769C93.9425 9.27737 93.7027 9.43688 93.4514 9.3889C93.2311 9.3474 93.0704 9.16196 92.9331 8.98819C92.7564 9.40318 92.6821 9.85467 92.7167 10.3044C92.7262 10.3704 92.724 10.4376 92.7102 10.5029C92.6785 10.5817 92.6304 10.6529 92.5689 10.7116C92.3422 10.971 92.201 11.3925 92.4251 11.6596C92.5223 11.775 92.6726 11.8386 92.7672 11.9566C92.9369 12.168 92.8799 12.4753 92.876 12.745C92.8667 12.8392 92.8905 12.9337 92.9434 13.0122C92.9924 13.0579 93.0524 13.0902 93.1176 13.1059C93.1828 13.1215 93.2509 13.1201 93.3153 13.1017C93.4437 13.063 93.5785 13.0502 93.7118 13.064C93.8523 13.1098 93.9736 13.201 94.0565 13.3234C94.475 13.8694 94.6409 14.4633 94.8197 15.1143Z" fill="#2D293D"/>
<g opacity="0.1">
<path opacity="0.1" d="M98.5812 14.8212C98.4673 14.9452 98.325 15.0395 98.1666 15.0961C97.3165 15.4502 96.3603 15.41 95.4455 15.3555C95.3473 15.3565 95.2501 15.3347 95.1617 15.292C95.0218 15.2103 94.9686 15.0391 94.9259 14.8835C94.7471 14.2351 94.5825 13.6398 94.1575 13.0991C94.0756 12.9743 93.9542 12.8807 93.8128 12.8332C93.6795 12.8206 93.5449 12.8334 93.4163 12.8708C93.352 12.8894 93.284 12.8911 93.2188 12.8756C93.1537 12.8602 93.0936 12.8281 93.0444 12.7826C92.9916 12.7042 92.9677 12.6097 92.9771 12.5155C92.9771 12.2432 93.038 11.9384 92.8682 11.727C92.7736 11.609 92.6233 11.5455 92.5261 11.4288C92.4628 11.3427 92.4239 11.2411 92.4136 11.1347C92.4033 11.0283 92.4221 10.9211 92.4678 10.8245C92.3059 11.0838 92.2372 11.4093 92.4251 11.6324C92.5223 11.7478 92.6726 11.8113 92.7672 11.9293C92.9369 12.142 92.8799 12.4481 92.876 12.7178C92.866 12.8118 92.8894 12.9064 92.9421 12.9849C92.9912 13.0309 93.0515 13.0633 93.1169 13.079C93.1823 13.0947 93.2506 13.0931 93.3153 13.0744C93.4436 13.0357 93.5784 13.0229 93.7118 13.0368C93.8523 13.0825 93.9735 13.1738 94.0564 13.2962C94.4801 13.8369 94.646 14.4309 94.8248 15.0819C94.8458 15.2421 94.9257 15.3887 95.049 15.493C95.1378 15.5358 95.2355 15.5571 95.334 15.5552C96.2527 15.6123 97.2103 15.6538 98.0551 15.2959C98.2138 15.2396 98.3562 15.1452 98.4698 15.0209C98.5269 14.9479 98.5707 14.8654 98.5993 14.7771C98.6006 14.794 98.5916 14.8083 98.5812 14.8212Z" fill="black"/>
<path opacity="0.1" d="M92.7165 10.4237C92.7572 10.3795 92.7885 10.3274 92.8085 10.2707C92.8202 10.2051 92.8202 10.1379 92.8085 10.0723C92.7832 9.70257 92.8312 9.33149 92.9497 8.98039L92.9329 8.96094C92.7556 9.37531 92.6814 9.82652 92.7165 10.2759C92.7204 10.3251 92.7204 10.3745 92.7165 10.4237Z" fill="black"/>
</g>
<path opacity="0.1" d="M94.2817 16.9428C94.2817 16.9428 98.0485 17.4434 98.3867 16.8766L94.2817 16.9428Z" fill="black"/>
<path opacity="0.1" d="M101.604 15.3827C101.604 15.3827 103.698 15.3827 104.158 16.1711L101.604 15.3827Z" fill="black"/>
<path d="M113.319 85.4297C112.698 85.9854 111.891 86.2872 111.058 86.2753C110.845 86.2753 110.551 86.3155 110.55 86.5281C110.555 86.5905 110.577 86.6504 110.612 86.7019C110.875 87.1406 111.29 87.4669 111.778 87.6187C112.232 87.7562 112.717 87.7329 113.19 87.7082L114.569 87.6369C114.829 87.6226 115.088 87.6097 115.347 87.5772C115.606 87.5448 115.889 87.4917 116.159 87.4476C116.825 87.3529 117.498 87.3216 118.169 87.3542C118.348 87.3607 118.558 87.3542 118.664 87.2245C118.77 87.0948 118.716 86.8471 118.676 86.6526C118.593 86.2519 118.676 85.8317 118.599 85.4297C118.47 84.7243 117.859 84.1835 117.191 83.928C116.569 83.692 115.467 83.421 114.879 83.8152C114.258 84.2289 113.879 84.9201 113.319 85.4297Z" fill="#3F3D56"/>
<path d="M114.69 61.7941C114.812 62.3738 115.373 62.8173 115.389 63.4087C115.403 63.8833 115.065 64.2814 114.821 64.6873C114.591 65.1077 114.398 65.5467 114.242 65.9997C113.783 67.1791 113.214 68.3124 112.542 69.3844C112.218 69.9031 111.855 70.4568 111.929 71.0598C111.98 71.3418 112.08 71.6129 112.223 71.8613L113.195 73.7935C113.408 74.1793 113.574 74.5889 113.691 75.0138C113.775 75.3808 113.783 75.7608 113.832 76.1342C113.985 77.3195 114.541 78.5126 114.212 79.6616C114.183 79.7601 114.082 79.8794 114.003 79.8107C114.325 80.4111 114.583 81.0154 114.558 81.6962C114.545 82.0529 114.436 82.425 114.567 82.757C114.623 82.8958 114.72 83.0255 114.719 83.1746C114.719 83.2732 114.673 83.3652 114.663 83.4612C114.636 83.7348 114.887 83.9631 115.148 84.0499C115.408 84.1368 115.692 84.1304 115.955 84.2095C116.46 84.3612 116.822 84.7969 117.251 85.0991C117.691 85.4024 118.209 85.5714 118.743 85.5854C118.819 85.5935 118.896 85.5781 118.964 85.5413C119.002 85.5079 119.032 85.4669 119.053 85.4208C119.074 85.3748 119.085 85.3248 119.085 85.2741C119.109 85.0319 119.072 84.7877 118.979 84.5629C118.886 84.3381 118.739 84.1397 118.551 83.9851C118.469 83.9335 118.401 83.8622 118.353 83.7776C118.329 83.7027 118.323 83.6232 118.335 83.5455C118.413 82.4826 118.394 81.4148 118.278 80.3553C118.226 80.0196 118.209 79.6792 118.228 79.3399C118.255 79.0572 118.34 78.7771 118.309 78.4957C118.278 78.2143 118.134 77.9575 118.05 77.6865C117.9 77.2041 117.941 76.6854 117.92 76.1809C117.895 75.3043 117.694 74.4432 117.494 73.5873C117.415 73.2514 117.328 72.9 117.091 72.651C116.889 72.4396 116.562 72.2373 116.639 71.9559C116.681 71.8522 116.744 71.7582 116.824 71.6797C116.918 71.5619 116.987 71.4261 117.027 71.2807C117.066 71.1354 117.076 70.9834 117.055 70.8342C117.14 70.856 117.23 70.8474 117.31 70.8101C117.39 70.7727 117.454 70.7088 117.492 70.6293C119.07 69.8836 120.342 68.3923 120.91 66.7389C120.943 66.6161 120.995 66.499 121.063 66.3913C121.209 66.1864 121.463 66.0983 121.688 65.9854C122.396 65.6288 122.884 64.961 123.333 64.3074C123.592 63.9287 123.851 63.5371 123.968 63.091C124.029 62.8024 124.058 62.508 124.055 62.213L124.095 60.6893C124.104 60.5889 124.094 60.4878 124.066 60.391C124.028 60.3005 123.972 60.2186 123.902 60.1498C123.471 59.6937 122.905 59.3882 122.287 59.2783C121.872 59.2044 121.449 59.2187 121.029 59.1837C120.215 59.1162 119.412 58.8634 118.598 58.9243C117.319 59.019 116.18 59.906 115.578 61.0394C115.367 61.4388 115.144 61.7864 114.69 61.7941Z" fill="#464353"/>
<path d="M107.589 51.8865C107.606 52.1217 107.575 52.358 107.496 52.5803C107.396 52.793 107.146 52.959 106.927 52.8721C106.993 52.7229 106.818 52.5531 106.655 52.5712C106.575 52.5897 106.5 52.6275 106.437 52.6813C106.375 52.735 106.326 52.8032 106.296 52.8799C106.188 53.0976 106.151 53.3442 106.192 53.584C106.244 53.8823 106.417 54.1689 106.371 54.4684C106.335 54.7174 106.152 54.9651 106.249 55.1959C106.312 55.3014 106.392 55.3964 106.484 55.4774C106.612 55.6352 106.675 55.8362 106.659 56.0388C106.643 56.2415 106.55 56.4304 106.4 56.5667L108.851 56.616C108.762 57.0257 108.946 57.4446 109.156 57.809C109.744 58.8109 110.556 59.6628 111.528 60.2979C112.5 60.9331 113.606 61.3342 114.759 61.4699C114.696 61.5063 114.643 61.5562 114.602 61.6158C114.561 61.6754 114.534 61.7434 114.523 61.8148C114.512 61.8861 114.516 61.9591 114.537 62.0284C114.557 62.0977 114.593 62.1617 114.641 62.2156C114.84 62.414 115.178 62.3893 115.429 62.261C115.679 62.1326 115.874 61.9199 116.102 61.7552C116.505 61.4697 116.996 61.3373 117.487 61.3817C117.795 61.4115 118.093 61.5114 118.401 61.527C119.308 61.5749 120.085 60.9214 120.959 60.6542C121.595 60.4584 122.317 60.4584 122.851 60.0603C123.081 59.8891 123.27 59.6077 123.203 59.3302C123.147 59.1707 123.059 59.0245 122.944 58.9009C122.637 58.5028 122.455 58.0243 122.235 57.5717C121.799 56.6757 121.198 55.8697 120.464 55.1959C119.91 54.7113 119.323 54.2658 118.707 53.8628C118.558 53.7528 118.399 53.6569 118.233 53.5762C118.017 53.4816 117.779 53.4362 117.585 53.3169C117.297 53.1353 117.131 52.815 116.91 52.5569C116.424 51.9889 115.677 51.7283 115.079 51.2822C114.677 50.9826 114.322 50.5884 113.843 50.4444C113.609 50.3731 113.362 50.3679 113.129 50.2979C112.599 50.1371 112.212 49.6664 111.693 49.4757C111.282 49.3253 110.829 49.3642 110.397 49.311C109.911 49.251 109.446 49.0739 109.043 48.7949C108.913 48.6891 108.768 48.6042 108.612 48.5433C107.955 48.3436 107.901 49.5678 107.834 49.9919C107.747 50.6221 107.589 51.2485 107.589 51.8865Z" fill="#1AAEFC"/>
<path d="M108.229 55.9922C108.34 57.1879 107.438 58.3459 107.701 59.5169C107.756 59.7659 107.864 60.0032 107.903 60.2561C108.013 60.9499 107.598 61.6074 107.203 62.1884L103.808 67.1746C103.672 67.3935 103.509 67.5947 103.324 67.7737C102.676 68.3508 101.701 68.2924 100.849 68.4636C100.25 68.5868 99.6843 68.8371 99.1902 69.1976C99.168 69.2148 99.1533 69.2401 99.1495 69.2679C99.1456 69.2958 99.1528 69.3241 99.1695 69.3467C99.3103 69.5386 99.4968 69.6921 99.712 69.7934C99.9272 69.8946 100.164 69.9403 100.402 69.9264C100.491 70.0431 100.402 70.2169 100.279 70.3012C100.097 70.4309 99.8459 70.4607 99.8096 70.7706C99.7973 70.8783 99.8191 70.9872 99.8718 71.0819C100.009 71.2908 100.222 71.4386 100.465 71.4942C101.64 71.8548 102.91 71.2219 103.79 70.3621C104.67 69.5024 105.301 68.4169 106.164 67.5429C106.642 67.0579 107.185 66.6442 107.677 66.1747C108.66 65.2372 109.424 64.0999 110.16 62.96C110.382 62.6163 110.606 62.2636 110.698 61.8655C110.79 61.4673 110.747 61.064 110.852 60.6789C110.989 60.1744 111.359 59.7711 111.666 59.3484C112.268 58.5184 112.671 57.503 112.591 56.4798C112.511 55.4566 111.878 54.4477 110.914 54.1002C110.615 53.9813 110.286 53.9613 109.975 54.0431C109.58 54.165 109.288 54.4918 109.019 54.8056L108.371 55.55C108.213 55.7148 108.089 55.9092 108.007 56.1219C107.965 56.2291 107.955 56.346 107.978 56.4587C108.001 56.5714 108.056 56.6751 108.136 56.7573" fill="#FBBEBE"/>
<path d="M109.95 51.0877C109.505 51.1137 109.013 51.1577 108.699 51.4768C108.567 51.6232 108.46 51.7906 108.382 51.9721C108.077 52.5959 107.779 53.2482 107.757 53.9433C107.738 54.4983 107.899 55.0417 107.983 55.5902C108.053 56.0467 107.876 56.5123 107.842 56.9739C108.395 56.804 109.126 56.5732 109.628 56.2866C109.97 56.0908 110.3 55.8677 110.673 55.7432C111.206 55.5656 112.099 55.8729 112.605 56.1193C112.632 55.764 112.366 55.1441 112.394 54.7875C112.398 54.6374 112.425 54.4887 112.473 54.3466C112.549 54.1962 112.639 54.0534 112.741 53.9199C112.934 53.6061 113.023 53.2393 112.995 52.8719C112.967 52.5046 112.823 52.1556 112.585 51.8749C112.135 51.3691 111.431 51.1798 110.76 51.0968C110.337 51.0477 109.911 51.033 109.486 51.0527" fill="#1AAEFC"/>
<defs>
<linearGradient id="paint0_linear" x1="91.509" y1="70.829" x2="91.509" y2="7.45924" gradientUnits="userSpaceOnUse">
<stop stop-color="#808080" stop-opacity="0.25"/>
<stop offset="0.54" stop-color="#808080" stop-opacity="0.12"/>
<stop offset="1" stop-color="#808080" stop-opacity="0.1"/>
</linearGradient>
</defs>
</svg>
