<svg width="187" height="137" viewBox="0 0 187 137" fill="none" xmlns="http://www.w3.org/2000/svg">
<g clip-path="url(#clip0)">
<path opacity="0.2" d="M24.7478 69.4088C22.2883 70.1509 19.9864 71.9474 19.372 74.44C18.6693 77.3046 20.2897 80.1921 20.5239 83.1334C21.2804 92.7701 7.55297 99.5691 9.51128 109.035C10.2889 112.799 13.4318 115.568 16.5286 117.855C21.4897 121.508 26.9941 124.735 33.0898 125.645C42.3419 127.03 52.0087 122.961 61.0016 125.532C68.255 127.607 73.8055 133.687 81.009 135.93C86.4923 137.638 92.3999 136.965 98.0963 136.273C101.168 135.901 104.386 135.472 106.865 133.631C111.472 130.205 111.762 123.438 114.848 118.589C119.613 111.112 130.061 109.643 138.822 111.096C147.582 112.55 156.089 116.128 164.965 115.836C166.862 115.773 168.805 115.516 170.46 114.586C172.472 113.457 173.831 111.466 175.033 109.497C182.545 97.1432 186.668 83.0322 186.988 68.5824C187.04 66.0995 186.952 63.5091 185.783 61.3175C184.304 58.545 181.35 56.8865 178.408 55.7706C171.345 53.0863 163.542 52.6472 156.621 49.6196C149.946 46.6995 144.539 41.5782 138.726 37.1893C127.14 28.46 113.712 22.4877 99.4652 19.7278C96.1265 19.0836 92.661 18.6234 89.3434 19.3674C85.5208 20.2244 82.2262 22.6039 79.2638 25.1655C71.3826 31.9798 65.066 40.3875 57.803 47.8557C52.7926 53.006 47.3368 57.7045 41.499 61.8966C38.8111 63.8312 35.9543 66.1282 32.9592 67.5586C30.2176 68.8662 27.6468 68.5364 24.7478 69.4088Z" fill="#1AAEFC"/>
<path d="M59.8784 8.84674C59.8784 8.84674 52.4579 18.6886 57.7665 30.1602C63.0751 41.6319 48.5144 60.0636 48.5144 60.0636" stroke="#535461" stroke-width="2" stroke-miterlimit="10"/>
<path d="M63.2057 5.16348C62.6163 7.69632 59.7959 9.2053 59.7959 9.2053C59.7959 9.2053 57.9336 6.60726 58.523 4.07441C59.1124 1.54156 60.6349 -0.268433 61.9328 0.032594C63.2306 0.333621 63.7951 2.63063 63.2057 5.16348Z" fill="#8ED16F"/>
<path d="M61.3111 4.72212C61.4964 3.92693 61.4047 3.22607 61.1062 3.15671C60.8077 3.08735 60.4156 3.67575 60.2303 4.47094C60.045 5.26613 60.1367 5.967 60.4352 6.03636C60.7337 6.10572 61.1258 5.51732 61.3111 4.72212Z" fill="#8ED16F"/>
<path opacity="0.3" d="M61.3111 4.72212C61.4964 3.92693 61.4047 3.22607 61.1062 3.15671C60.8077 3.08735 60.4156 3.67575 60.2303 4.47094C60.045 5.26613 60.1367 5.967 60.4352 6.03636C60.7337 6.10572 61.1258 5.51732 61.3111 4.72212Z" fill="black"/>
<path d="M61.9231 16.4165C59.4733 17.2985 56.6721 15.7531 56.6721 15.7531C56.6721 15.7531 57.8433 12.7793 60.295 11.8992C62.7467 11.0191 65.0948 11.324 65.546 12.5626C65.9971 13.8012 64.3729 15.5346 61.9231 16.4165Z" fill="#8ED16F"/>
<path d="M61.2351 14.4637C62.0035 14.1861 62.542 13.7279 62.4379 13.4402C62.3337 13.1526 61.6262 13.1444 60.8578 13.422C60.0893 13.6996 59.5508 14.1578 59.655 14.4455C59.7592 14.7331 60.4666 14.7413 61.2351 14.4637Z" fill="#8ED16F"/>
<path opacity="0.3" d="M61.2351 14.4637C62.0035 14.1861 62.542 13.7279 62.4379 13.4402C62.3337 13.1526 61.6262 13.1444 60.8578 13.422C60.0893 13.6996 59.5508 14.1578 59.655 14.4455C59.7592 14.7331 60.4666 14.7413 61.2351 14.4637Z" fill="black"/>
<path d="M61.353 25.3841C58.9032 26.2661 56.1021 24.7207 56.1021 24.7207C56.1021 24.7207 57.2732 21.7468 59.7249 20.8667C62.1767 19.9867 64.5247 20.2915 64.9759 21.5302C65.4271 22.7688 63.8028 24.504 61.353 25.3841Z" fill="#8ED16F"/>
<path d="M60.6932 23.5668C61.4624 23.2903 62.0018 22.8326 61.898 22.5447C61.7942 22.2568 61.0865 22.2475 60.3173 22.5241C59.5481 22.8006 59.0087 23.2583 59.1125 23.5462C59.2163 23.8341 59.924 23.8434 60.6932 23.5668Z" fill="#8ED16F"/>
<path opacity="0.3" d="M60.6932 23.5668C61.4624 23.2903 62.0018 22.8326 61.898 22.5447C61.7942 22.2568 61.0865 22.2475 60.3173 22.5241C59.5481 22.8006 59.0087 23.2583 59.1125 23.5462C59.2163 23.8341 59.924 23.8434 60.6932 23.5668Z" fill="black"/>
<path d="M64.2156 35.9047C61.7658 36.7867 58.9646 35.2413 58.9646 35.2413C58.9646 35.2413 60.1357 32.2675 62.5875 31.3874C65.0392 30.5073 67.3873 30.8122 67.8385 32.0508C68.2896 33.2894 66.6654 35.0285 64.2156 35.9047Z" fill="#8ED16F"/>
<path d="M63.5562 34.0921C64.3254 33.8155 64.8648 33.3579 64.761 33.07C64.6572 32.782 63.9495 32.7728 63.1803 33.0494C62.4111 33.3259 61.8717 33.7835 61.9755 34.0715C62.0794 34.3594 62.787 34.3686 63.5562 34.0921Z" fill="#8ED16F"/>
<path opacity="0.3" d="M63.5562 34.0921C64.3254 33.8155 64.8648 33.3579 64.761 33.07C64.6572 32.782 63.9495 32.7728 63.1803 33.0494C62.4111 33.3259 61.8717 33.7835 61.9755 34.0715C62.0794 34.3594 62.787 34.3686 63.5562 34.0921Z" fill="black"/>
<path d="M62.3533 45.526C59.9035 46.408 57.1023 44.8626 57.1023 44.8626C57.1023 44.8626 58.2734 41.8888 60.7252 41.0087C63.1769 40.1286 65.525 40.4335 65.9762 41.6721C66.4273 42.9107 64.805 44.646 62.3533 45.526Z" fill="#8ED16F"/>
<path d="M61.6992 43.55C62.4676 43.2724 63.0061 42.8141 62.9019 42.5265C62.7978 42.2388 62.0903 42.2306 61.3219 42.5082C60.5534 42.7858 60.0149 43.244 60.1191 43.5317C60.2233 43.8194 60.9307 43.8276 61.6992 43.55Z" fill="#8ED16F"/>
<path opacity="0.3" d="M61.6992 43.55C62.4676 43.2724 63.0061 42.8141 62.9019 42.5265C62.7978 42.2388 62.0903 42.2306 61.3219 42.5082C60.5534 42.7858 60.0149 43.244 60.1191 43.5317C60.2233 43.8194 60.9307 43.8276 61.6992 43.55Z" fill="black"/>
<path d="M50.8625 18.9647C52.671 20.8361 55.8677 20.6903 55.8677 20.6903C55.8677 20.6903 56.1307 17.5056 54.3222 15.6342C52.5136 13.7629 50.2731 12.9921 49.3169 13.9086C48.3608 14.8251 49.0539 17.0934 50.8625 18.9647Z" fill="#8ED16F"/>
<path d="M53.6893 18.3006C53.9097 18.0881 53.6282 17.4396 53.0604 16.8522C52.4926 16.2648 51.8536 15.9609 51.6331 16.1735C51.4126 16.386 51.6942 17.0345 52.262 17.6219C52.8298 18.2093 53.4688 18.5132 53.6893 18.3006Z" fill="#8ED16F"/>
<path opacity="0.3" d="M53.6893 18.3006C53.9097 18.0881 53.6282 17.4396 53.0604 16.8522C52.4926 16.2648 51.8536 15.9609 51.6331 16.1735C51.4126 16.386 51.6942 17.0345 52.262 17.6219C52.8298 18.2093 53.4688 18.5132 53.6893 18.3006Z" fill="black"/>
<path d="M49.8237 48.6821C51.6322 50.5534 54.8289 50.4077 54.8289 50.4077C54.8289 50.4077 55.0919 47.2229 53.2834 45.3516C51.4748 43.4802 49.2342 42.7094 48.2781 43.6259C47.322 44.5424 48.0151 46.8107 49.8237 48.6821Z" fill="#8ED16F"/>
<path d="M52.648 48.0206C52.8685 47.808 52.5869 47.1595 52.0191 46.5721C51.4513 45.9847 50.8123 45.6809 50.5918 45.8934C50.3714 46.106 50.6529 46.7544 51.2207 47.3418C51.7885 47.9292 52.4275 48.2331 52.648 48.0206Z" fill="#8ED16F"/>
<path opacity="0.3" d="M52.648 48.0206C52.8685 47.808 52.5869 47.1595 52.0191 46.5721C51.4513 45.9847 50.8123 45.6809 50.5918 45.8934C50.3714 46.106 50.6529 46.7544 51.2207 47.3418C51.7885 47.9292 52.4275 48.2331 52.648 48.0206Z" fill="black"/>
<path d="M52.2217 29.4681C54.5525 30.63 57.5149 29.422 57.5149 29.422C57.5149 29.422 56.6989 26.3332 54.3701 25.1712C52.0412 24.0093 49.6701 24.0208 49.0768 25.2172C48.4836 26.4137 49.8909 28.3061 52.2217 29.4681Z" fill="#8ED16F"/>
<path d="M54.6577 27.8946C54.7946 27.6208 54.3125 27.1033 53.581 26.7388C52.8495 26.3742 52.1456 26.3007 52.0087 26.5745C51.8719 26.8483 52.354 27.3658 53.0855 27.7304C53.817 28.0949 54.5209 28.1685 54.6577 27.8946Z" fill="#8ED16F"/>
<path opacity="0.3" d="M54.6577 27.8946C54.7946 27.6208 54.3125 27.1033 53.581 26.7388C52.8495 26.3742 52.1456 26.3007 52.0087 26.5745C51.8719 26.8483 52.354 27.3658 53.0855 27.7304C53.817 28.0949 54.5209 28.1685 54.6577 27.8946Z" fill="black"/>
<path d="M53.1989 39.9312C55.5297 41.0931 58.4921 39.8851 58.4921 39.8851C58.4921 39.8851 57.6761 36.7963 55.3473 35.6343C53.0184 34.4724 50.6473 34.4839 50.054 35.6804C49.4608 36.8768 50.8777 38.7807 53.1989 39.9312Z" fill="#8ED16F"/>
<path d="M55.636 38.3591C55.7728 38.0853 55.2907 37.5678 54.5592 37.2032C53.8277 36.8387 53.1238 36.7651 52.987 37.0389C52.8502 37.3128 53.3323 37.8303 54.0638 38.1948C54.7952 38.5594 55.4992 38.6329 55.636 38.3591Z" fill="#8ED16F"/>
<path opacity="0.3" d="M55.636 38.3591C55.7728 38.0853 55.2907 37.5678 54.5592 37.2032C53.8277 36.8387 53.1238 36.7651 52.987 37.0389C52.8502 37.3128 53.3323 37.8303 54.0638 38.1948C54.7952 38.5594 55.4992 38.6329 55.636 38.3591Z" fill="black"/>
<path d="M24.1392 30.0011C24.1392 30.0011 37.6919 43.5358 30.041 63.6203C22.3901 83.7047 43.156 117.103 43.156 117.103C43.156 117.103 42.9333 117.071 42.5205 116.998C14.6817 112.091 0.858251 80.2976 16.3328 56.6794C22.0791 47.8978 26.8117 37.5977 24.1392 30.0011Z" fill="#8ED16F"/>
<path d="M0 84.744C0 84.744 15.4649 82.284 16.8742 96.1255C18.2834 109.967 46.6118 111.886 46.6118 111.886C46.6118 111.886 46.4198 112.013 46.0799 112.239C22.6896 127.578 0.330227 122.006 3.69968 101.646C4.95531 94.0739 4.85163 86.4715 0 84.744Z" fill="#8ED16F"/>
<g opacity="0.3">
<path opacity="0.3" d="M0 84.744C0 84.744 15.4649 82.284 16.8742 96.1255C18.2834 109.967 46.6118 111.886 46.6118 111.886C46.6118 111.886 46.4198 112.013 46.0799 112.239C22.6896 127.578 0.330227 122.006 3.69968 101.646C4.95531 94.0739 4.85163 86.4715 0 84.744Z" fill="white"/>
</g>
<path d="M20.2245 84.5733C22.5732 84.5733 24.4772 79.6124 24.4772 73.4928C24.4772 67.3733 22.5732 62.4124 20.2245 62.4124C17.8759 62.4124 15.9719 67.3733 15.9719 73.4928C15.9719 79.6124 17.8759 84.5733 20.2245 84.5733Z" fill="#8ED16F"/>
<path opacity="0.3" d="M20.2245 84.5733C22.5732 84.5733 24.4772 79.6124 24.4772 73.4928C24.4772 67.3733 22.5732 62.4124 20.2245 62.4124C17.8759 62.4124 15.9719 67.3733 15.9719 73.4928C15.9719 79.6124 17.8759 84.5733 20.2245 84.5733Z" fill="black"/>
<path d="M19.8358 113.735C20.9552 112.617 19.8429 109.694 17.3514 107.205C14.8599 104.717 11.9327 103.606 10.8133 104.724C9.69384 105.842 10.8061 108.766 13.2976 111.254C15.7891 113.742 18.7164 114.853 19.8358 113.735Z" fill="#8ED16F"/>
<path opacity="0.3" d="M19.8358 113.735C20.9552 112.617 19.8429 109.694 17.3514 107.205C14.8599 104.717 11.9327 103.606 10.8133 104.724C9.69384 105.842 10.8061 108.766 13.2976 111.254C15.7891 113.742 18.7164 114.853 19.8358 113.735Z" fill="black"/>
<path d="M138.981 50.8985H38.312C37.0956 50.8985 35.9289 51.3811 35.0688 52.2402C34.2086 53.0992 33.7253 54.2643 33.7253 55.4791V114.406C33.7253 115.621 34.2086 116.786 35.0688 117.645C35.9289 118.504 37.0956 118.986 38.312 118.986H138.981C140.197 118.986 141.364 118.504 142.224 117.645C143.084 116.786 143.568 115.621 143.568 114.406V55.4791C143.568 54.2643 143.084 53.0992 142.224 52.2402C141.364 51.3811 140.197 50.8985 138.981 50.8985Z" fill="url(#paint0_linear)"/>
<path d="M137.51 51.7H39.7807C37.1499 51.7 35.0173 53.8298 35.0173 56.457V113.428C35.0173 116.055 37.1499 118.185 39.7807 118.185H137.51C140.141 118.185 142.274 116.055 142.274 113.428V56.457C142.274 53.8298 140.141 51.7 137.51 51.7Z" fill="#1AAEFC"/>
<path d="M142.274 63.3346H35.0173V75.5233H142.274V63.3346Z" fill="#1AAEFC"/>
<path opacity="0.3" d="M142.274 63.3346H35.0173V75.5233H142.274V63.3346Z" fill="black"/>
<path d="M132.104 84.5733H45.189V90.4827H132.104V84.5733Z" fill="#D6D6E3"/>
<path d="M52.4002 113.754C57.0986 113.754 60.9074 109.95 60.9074 105.258C60.9074 100.566 57.0986 96.762 52.4002 96.762C47.7018 96.762 43.8931 100.566 43.8931 105.258C43.8931 109.95 47.7018 113.754 52.4002 113.754Z" fill="#1AAEFC"/>
<path opacity="0.3" d="M52.4002 113.754C57.0986 113.754 60.9074 109.95 60.9074 105.258C60.9074 100.566 57.0986 96.762 52.4002 96.762C47.7018 96.762 43.8931 100.566 43.8931 105.258C43.8931 109.95 47.7018 113.754 52.4002 113.754Z" fill="black"/>
<path d="M136.176 35.3065C136.313 35.7401 136.605 36.1084 136.996 36.3419C138.76 37.5057 142.596 37.2584 143.057 37.2584C143.155 37.2584 143.284 37.4328 143.426 37.7262C144.103 39.1221 145.154 43.2137 145.225 44.1341C145.319 45.2481 146.355 50.4614 148.053 52.4037C148.104 52.4631 148.156 52.5187 148.206 52.5705C149.871 54.2405 151.823 52.4037 151.823 52.4037L152.104 51.4316C152.025 51.815 151.937 52.2618 151.848 52.7622C151.804 53.0134 151.76 53.2799 151.718 53.5541C151.465 55.0991 151.332 56.6613 151.32 58.2267C151.316 58.7951 151.34 59.3634 151.393 59.9294C151.409 60.0866 151.426 60.2419 151.447 60.3934C151.534 61.0828 151.576 61.777 151.574 62.4718C151.558 66.598 150.504 71.7308 150.504 71.7308L150.545 71.7174C150.52 71.8458 150.504 71.9091 150.504 71.9091L150.566 71.8899C150.536 72.0804 150.508 72.2753 150.481 72.4747C150.124 75.0632 149.919 78.2843 149.821 80.1442C149.77 81.1253 149.814 82.1089 149.951 83.0816L151.825 96.2559V102.391C151.819 103.321 151.932 104.248 152.163 105.149C152.774 107.467 152.271 115.558 151.988 119.397C151.91 120.443 151.848 121.176 151.831 121.387V121.45L151.885 121.429C151.885 121.473 151.885 121.496 151.885 121.496C151.965 121.462 152.049 121.437 152.134 121.423C151.391 122.574 150.045 124.476 149.011 124.796C148.401 124.981 147.858 125.341 147.45 125.829L147.423 125.866L147.384 125.92C147.257 126.09 147.179 126.294 147.16 126.506C147.145 126.47 147.133 126.432 147.125 126.393C147.047 126.821 147.304 127.212 148.112 127.402C148.583 127.491 149.063 127.53 149.542 127.517C152.346 127.517 157.32 126.656 157.869 125.73V122.535L157.959 122.564V122.593L158.303 122.706L159.246 119.546C160.377 118.71 159.438 103.749 159.246 100.311C159.073 97.1781 161.014 84.7152 161.358 82.5198L161.312 82.4642L161.363 82.144C161.433 82.1941 161.497 82.2506 161.555 82.3127C161.668 82.4465 161.767 82.5918 161.849 82.7461C162.011 83.0205 162.151 83.3078 162.266 83.6051C164.163 88.3295 165.017 101.839 165.017 103.051V115.756C165.013 117.009 165.188 118.257 165.535 119.462C165.71 120.096 165.844 120.74 165.939 121.391C165.979 121.646 166.013 121.899 166.046 122.14C166.079 122.382 166.111 122.658 166.136 122.884C166.136 122.944 166.15 123.001 166.156 123.055C166.161 123.109 166.156 123.107 166.156 123.134C166.207 123.634 166.234 123.962 166.234 123.962C166.241 123.934 166.254 123.909 166.273 123.887L166.282 124.008C166.296 123.962 166.322 123.921 166.357 123.889C166.435 123.813 166.52 123.743 166.611 123.682V125.296L166.564 125.262V125.54C168.519 127.012 171.7 127.457 174.142 127.44C175.726 127.44 177.009 127.248 177.454 127.026C178.092 126.713 177.742 125.985 177.162 125.427C176.713 124.993 176.128 124.66 175.757 124.702C175.139 124.769 173.025 122.378 171.917 121.069L172.042 121.013L172.219 120.936V99.7531C172.219 99.7531 172.503 91.3896 173.349 83.118C173.751 78.9485 173.257 74.7413 171.9 70.7778L171.873 70.6992L172.13 70.7395C172.403 70.7817 172.549 70.8066 172.549 70.8066C172.549 70.8066 172.549 70.7414 172.532 70.6149H172.549C172.549 70.6149 172.219 67.0275 172.215 62.5216C172.215 57.4138 172.647 51.1861 174.434 47.662C175.463 45.6334 175.807 44.019 175.778 42.7459C175.823 41.6256 175.5 40.5214 174.859 39.6014C174.589 39.231 174.223 38.9418 173.801 38.7654L173.764 38.7443H173.745C173.436 38.6196 173.107 38.5545 172.773 38.5526H168.913C168.466 38.553 168.026 38.4373 167.638 38.2171L166.127 37.3619C165.624 36.2633 165.551 34.9019 165.658 33.6249C165.658 33.5233 165.677 33.4217 165.687 33.322L165.796 33.207C165.881 33.1168 165.96 33.0152 166.036 32.9289C166.035 33.0046 166.029 33.0801 166.019 33.1552C166 33.276 165.967 33.3469 165.916 33.3623C166.741 33.2549 167.663 33.0919 168.169 32.4554C168.191 32.4304 168.21 32.4036 168.229 32.3767C168.379 32.1346 168.503 31.8776 168.6 31.6098C168.671 31.4268 168.765 31.2541 168.882 31.0959C169.009 30.931 169.174 30.7968 169.31 30.6396L169.333 30.6128C169.819 30.0375 169.846 29.2131 169.851 28.4615C169.861 26.6361 169.807 24.6267 168.584 23.2577C167.569 22.1188 165.948 21.6874 164.41 21.6375C162.872 21.5877 161.338 21.8638 159.802 21.8715C158.758 21.8715 157.499 21.8542 156.923 22.717C156.64 23.1408 156.606 23.6949 156.299 24.1014C156.122 24.3353 155.851 24.5366 155.836 24.8281C155.834 24.9625 155.868 25.095 155.936 25.2115V25.2249C156.308 25.9574 157.099 26.4137 157.925 26.5575C157.785 26.7253 157.657 26.9021 157.541 27.0867C157.037 27.8914 156.771 28.8219 156.773 29.771C156.773 29.8822 156.773 29.9915 156.784 30.1008C156.87 31.39 157.446 32.5978 158.393 33.4773C158.378 33.5847 158.363 33.6921 158.345 33.7975L158.38 33.8282C158.489 33.9266 158.602 34.0199 158.72 34.1081L158.762 34.1407C158.762 34.2078 158.762 34.2749 158.762 34.3325C158.762 34.4437 158.762 34.5568 158.75 34.6661C158.739 34.7754 158.75 34.8425 158.739 34.9307L158.714 34.9096L156.838 33.345L153.822 30.5572C153.822 30.5572 146.281 25.0754 145.902 27.6811C145.857 28.1439 145.985 28.6071 146.261 28.9811C147.646 31.0902 152.405 32.8848 152.405 32.8848C152.405 32.8848 155.243 35.8817 157.141 39.1125C157.074 39.1489 157.007 39.1834 156.936 39.216C155.247 40.0002 152.781 39.6685 152.781 39.6685C149.934 40.1114 149.677 43.2271 149.692 44.4869C149.692 44.5463 149.692 44.6038 149.692 44.6556C149.692 44.7074 149.692 44.7189 149.692 44.7476L145.914 35.8874L145.902 35.8606C145.779 35.5721 145.585 35.3194 145.338 35.1257C145.091 34.932 144.799 34.8036 144.489 34.7524C141.963 34.3286 135.648 33.4447 136.176 35.3065ZM151.994 121.396C152.049 121.383 152.105 121.373 152.161 121.366L152.144 121.393L151.994 121.396Z" fill="url(#paint1_linear)"/>
<path d="M170.873 119.585C170.873 119.585 174.451 124.077 175.279 123.985C176.106 123.893 178.032 125.726 176.932 126.286C175.832 126.846 169.498 127.202 166.372 124.819V121.228L170.873 119.585Z" fill="#ACA9C9"/>
<path d="M152.789 119.859C152.789 119.859 150.677 123.617 149.21 124.077C147.743 124.537 146.457 126.186 148.385 126.644C150.312 127.103 157.197 126.094 157.838 124.993V120.133L152.789 119.859Z" fill="#ACA9C9"/>
<path d="M150.138 82.9397L151.961 95.9357V101.977C151.956 102.894 152.067 103.807 152.292 104.696C152.887 106.984 152.397 114.964 152.121 118.75C152.031 119.985 151.961 120.775 151.961 120.775C153.154 120.225 158.203 121.966 158.203 121.966L158.714 120.231L159.121 118.85C160.223 118.026 159.313 103.268 159.121 99.8682C158.996 97.5462 160.033 90.0187 160.697 85.5071C160.889 84.232 161.045 83.2062 161.139 82.5888C161.198 82.2054 161.231 81.9925 161.231 81.9925C161.433 82.1573 161.601 82.3598 161.726 82.5888C161.884 82.8598 162.02 83.1433 162.131 83.4363C163.978 88.0975 164.819 101.423 164.819 102.61V115.142C164.815 116.378 164.985 117.609 165.324 118.798C165.551 119.666 165.718 120.548 165.821 121.439C165.952 122.434 166.013 123.235 166.013 123.235C166.106 122.685 171.796 120.21 171.796 120.21V99.3102C171.796 99.3102 172.071 91.0655 172.898 82.9014C173.254 79.1877 172.895 75.4404 171.842 71.8612C171.614 71.0808 171.385 70.4193 171.188 69.8958C170.852 69.0043 170.612 68.5115 170.612 68.5115H151.865C151.551 68.5709 151.289 69.2037 151.053 70.1643C150.9 70.8085 150.765 71.5985 150.648 72.4651C150.301 75.0171 150.101 78.1942 150.005 80.0311C149.957 81.0026 150.001 81.9766 150.138 82.9397Z" fill="#618FD8"/>
<g opacity="0.1">
<path opacity="0.1" d="M171.466 120.269V99.3697C171.466 99.3697 171.74 91.125 172.568 82.9608C173.395 74.7966 170.264 68.569 170.264 68.569H170.631C170.631 68.569 173.751 74.8024 172.935 82.9608C172.119 91.1192 171.833 99.3697 171.833 99.3697V120.269C171.833 120.269 166.142 122.744 166.05 123.295C166.05 123.295 166.05 123.172 166.021 122.961C167.261 122.1 171.466 120.269 171.466 120.269Z" fill="black"/>
<path opacity="0.1" d="M152.512 120.718C152.339 120.721 152.168 120.756 152.008 120.821V120.729C152.175 120.712 152.344 120.709 152.512 120.718Z" fill="black"/>
<path opacity="0.1" d="M158.8 118.896C159.902 118.072 158.992 103.314 158.8 99.9142C158.608 96.5147 160.912 82.0405 160.912 82.0405C161.033 82.1335 161.139 82.2433 161.229 82.3664C160.891 84.5292 159.002 96.8253 159.169 99.9142C159.361 103.306 160.271 118.064 159.169 118.896L158.251 122.012L157.917 121.901L158.8 118.896Z" fill="black"/>
</g>
<path d="M153.889 45.8846L151.969 52.6682C151.969 52.6682 149.95 54.5856 148.298 52.6682C146.647 50.7509 145.63 45.6104 145.53 44.5098C145.43 43.4093 143.969 37.7262 143.418 37.7262C142.867 37.7262 137.361 38.0924 136.717 35.8088C136.203 33.972 142.35 34.8501 144.812 35.2624C145.115 35.3139 145.4 35.4411 145.641 35.6322C145.881 35.8233 146.07 36.072 146.188 36.3553L149.963 45.3573C149.963 45.3573 151.962 43.043 153.889 45.8846Z" fill="#F7C4A7"/>
<path d="M166.28 30.1181C166.28 30.1181 163.894 36.8097 166.923 39.193C169.953 41.5763 156.089 42.2186 156.089 42.2186L157.971 40.4316C157.971 40.4316 159.301 35.1608 158.384 30.7604L166.28 30.1181Z" fill="#F7C4A7"/>
<path opacity="0.1" d="M163.343 39.193C163.343 39.193 165.775 38.5967 165.775 37.9563L167.931 39.193H173.347C173.347 39.193 177.295 41.3922 173.991 47.9937C170.686 54.5952 172.155 70.8104 172.155 70.8104C172.155 70.8104 160.407 68.7013 150.677 71.911C150.677 71.911 152.146 64.6691 151.595 60.5448C151.044 56.4206 152.512 50.6455 152.512 50.6455L153.338 47.1616C153.338 47.1616 153.292 43.9021 149.896 45.5568C149.896 45.5568 149.391 40.8362 152.879 40.2859C152.879 40.2859 156.911 40.8362 158.111 38.8191C158.111 38.8268 160.774 40.3856 163.343 39.193Z" fill="black"/>
<path d="M163.343 39.0108C163.343 39.0108 165.775 38.4145 165.775 37.7741L167.355 38.681C167.733 38.897 168.16 39.0107 168.596 39.0108H172.384C172.78 39.0097 173.17 39.1026 173.523 39.282C173.876 39.4614 174.181 39.722 174.413 40.0424C175.283 41.2637 176.062 43.6719 173.991 47.8115C170.686 54.4111 172.155 70.6283 172.155 70.6283C172.155 70.6283 160.407 68.5191 150.677 71.7288C150.677 71.7288 152.146 64.4869 151.595 60.3627C151.044 56.2384 152.512 50.4767 152.512 50.4767L153.338 46.9928C153.338 46.9928 153.292 43.7333 149.896 45.388C149.896 45.388 149.404 40.7978 152.735 40.1421C152.828 40.1215 152.923 40.115 153.017 40.1229C153.73 40.1977 157.049 40.4373 158.113 38.6408C158.111 38.6427 160.774 40.2015 163.343 39.0108Z" fill="#E14B5A"/>
<path opacity="0.1" d="M172.614 47.3514C172.614 47.3514 169.677 49.1844 164.904 47.3514C164.904 47.3514 159.672 45.434 158.019 41.6683C156.366 37.9026 166.371 42.3106 166.371 42.3106C166.371 42.3106 168.482 42.3106 169.124 41.8524C169.765 41.3941 174.265 45.3343 172.614 47.3514Z" fill="black"/>
<path d="M172.614 46.9852C172.614 46.9852 169.676 48.8182 164.904 46.9852C164.904 46.9852 159.672 45.0678 158.019 41.3021C156.366 37.5364 152.512 33.4121 152.512 33.4121C152.512 33.4121 145.812 30.8447 146.177 28.2793C146.542 25.7139 153.887 31.1208 153.887 31.1208L156.825 33.8704L166.37 41.9367C166.37 41.9367 168.482 41.9367 169.124 41.4785C169.765 41.0202 174.265 44.9681 172.614 46.9852Z" fill="#F7C4A7"/>
<path opacity="0.1" d="M158.295 31.0346L166.188 30.3922C165.782 31.6041 165.506 32.8554 165.364 34.1254C164.447 35.0756 163.192 35.628 161.871 35.6639C160.55 35.6998 159.267 35.2161 158.299 34.3171C158.5 33.232 158.499 32.1192 158.295 31.0346Z" fill="black"/>
<path d="M161.83 35.3889C164.618 35.3889 166.877 33.1321 166.877 30.3481C166.877 27.5642 164.618 25.3074 161.83 25.3074C159.042 25.3074 156.782 27.5642 156.782 30.3481C156.782 33.1321 159.042 35.3889 161.83 35.3889Z" fill="#F7C4A7"/>
<path opacity="0.1" d="M164.6 31.443C164.305 30.9559 164.906 30.3213 164.708 29.7883C164.525 29.2974 163.8 29.2131 163.556 28.7548C163.364 28.3848 163.556 27.9303 163.479 27.5219C163.37 26.9947 162.801 26.6668 162.262 26.6399C161.722 26.6131 161.202 26.8144 160.689 26.987C159.854 27.2688 158.975 27.4855 158.099 27.3858C157.224 27.2861 156.35 26.8106 155.961 26.0302C155.897 25.9165 155.863 25.7885 155.863 25.6582C155.878 25.3706 156.143 25.1732 156.314 24.9431C156.613 24.5423 156.648 23.9959 156.921 23.5779C157.477 22.7266 158.7 22.7477 159.718 22.7438C161.216 22.7438 162.705 22.4639 164.203 22.5138C165.7 22.5636 167.275 22.9874 168.267 24.1109C169.458 25.4627 169.512 27.4414 169.502 29.2437C169.502 29.9858 169.471 30.793 168.997 31.3663C168.859 31.5331 168.69 31.6711 168.557 31.8418C168.269 32.2252 168.193 32.7161 167.922 33.1053C167.442 33.7975 166.505 33.9662 165.67 34.0774C165.916 34.0448 165.712 32.4016 165.67 32.2502C165.508 31.4947 165.334 31.5101 164.6 31.443Z" fill="black"/>
<path d="M164.6 31.2608C164.305 30.7738 164.906 30.1392 164.708 29.6061C164.525 29.1153 163.8 29.0309 163.556 28.5727C163.364 28.2026 163.556 27.7482 163.479 27.3398C163.37 26.8125 162.801 26.4847 162.262 26.4578C161.722 26.431 161.202 26.6323 160.689 26.8049C159.854 27.0867 158.975 27.3034 158.099 27.2037C157.224 27.104 156.35 26.6285 155.961 25.8481C155.897 25.7344 155.863 25.6064 155.863 25.4761C155.878 25.1885 156.143 24.991 156.314 24.7609C156.613 24.3602 156.648 23.8138 156.921 23.3958C157.477 22.5445 158.7 22.5655 159.718 22.5617C161.216 22.5617 162.705 22.2818 164.203 22.3316C165.7 22.3815 167.275 22.8052 168.267 23.9288C169.458 25.2805 169.512 27.2593 169.502 29.0616C169.502 29.8036 169.471 30.6108 168.997 31.1841C168.859 31.3509 168.69 31.489 168.557 31.6596C168.269 32.0431 168.193 32.534 167.922 32.9232C167.442 33.6154 166.505 33.7841 165.67 33.8953C165.916 33.8627 165.712 32.2195 165.67 32.068C165.508 31.303 165.334 31.326 164.6 31.2608Z" fill="#281C1C"/>
<path opacity="0.1" d="M172.568 47.5815C172.568 47.5815 170.089 41.164 168.162 40.9819C166.234 40.7997 171.833 40.9819 171.833 40.9819L173.668 44.2817L172.568 47.5815Z" fill="black"/>
<path d="M172.752 47.5815C172.752 47.5815 170.274 41.164 168.346 40.9819C166.419 40.7997 172.017 40.9819 172.017 40.9819L173.853 44.2817L172.752 47.5815Z" fill="#E14B5A"/>
<path d="M165.814 121.454C165.944 122.449 166.006 123.251 166.006 123.251C166.098 122.7 171.789 120.225 171.789 120.225V118.735C171.644 118.73 171.498 118.737 171.355 118.756C170.251 118.904 169.227 119.439 168.283 120.01C167.485 120.533 166.661 121.015 165.814 121.454Z" fill="#618FD8"/>
<path opacity="0.3" d="M165.814 121.454C165.944 122.449 166.006 123.251 166.006 123.251C166.098 122.7 171.789 120.225 171.789 120.225V118.735C171.644 118.73 171.498 118.737 171.355 118.756C170.251 118.904 169.227 119.439 168.283 120.01C167.485 120.533 166.661 121.015 165.814 121.454Z" fill="black"/>
<path d="M151.961 120.775C153.154 120.225 158.203 121.966 158.203 121.966L158.714 120.231C157.833 120.052 156.957 119.83 156.097 119.565C155.695 119.449 155.303 119.304 154.922 119.132C154.668 118.996 154.406 118.875 154.139 118.768C153.48 118.541 152.795 118.637 152.119 118.75C152.031 119.985 151.961 120.775 151.961 120.775Z" fill="#618FD8"/>
<path opacity="0.3" d="M151.961 120.775C153.154 120.225 158.203 121.966 158.203 121.966L158.714 120.231C157.833 120.052 156.957 119.83 156.097 119.565C155.695 119.449 155.303 119.304 154.922 119.132C154.668 118.996 154.406 118.875 154.139 118.768C153.48 118.541 152.795 118.637 152.119 118.75C152.031 119.985 151.961 120.775 151.961 120.775Z" fill="black"/>
<path opacity="0.4" d="M176.882 126C176.959 125.967 177.027 125.917 177.082 125.854C177.136 125.791 177.176 125.716 177.197 125.636C177.231 125.762 177.218 125.897 177.16 126.014C177.102 126.132 177.003 126.224 176.882 126.274C175.78 126.825 169.448 127.191 166.323 124.807V124.533C169.448 126.917 175.78 126.55 176.882 126Z" fill="white"/>
<path opacity="0.4" d="M148.337 126.366C150.257 126.824 157.149 125.816 157.79 124.715V124.99C157.147 126.09 150.264 127.099 148.337 126.64C147.55 126.449 147.298 126.065 147.377 125.645C147.438 125.956 147.726 126.213 148.337 126.366Z" fill="white"/>
<path opacity="0.1" d="M159.534 59.59C159.534 59.59 157.514 58.9477 156.963 59.59C156.412 60.2323 151.702 61.7374 151.702 61.7374" fill="black"/>
<path d="M136.681 34.4034H146.501V34.1963H136.681V34.4034Z" fill="#8ED16F"/>
<path d="M136.681 34.6105H146.501V34.4034H136.681V34.6105Z" fill="#8ED16F"/>
<path opacity="0.1" d="M136.681 34.6105H146.501V34.4034H136.681V34.6105Z" fill="black"/>
<path d="M136.681 34.8175H146.501V34.6105H136.681V34.8175Z" fill="#8ED16F"/>
<path d="M136.681 35.0227H146.501V34.8156H136.681V35.0227Z" fill="#8ED16F"/>
<path opacity="0.1" d="M136.681 35.0227H146.501V34.8156H136.681V35.0227Z" fill="black"/>
<path d="M136.681 35.2298H146.501V35.0227H136.681V35.2298Z" fill="#8ED16F"/>
<path d="M136.681 35.4349H146.501V35.2279H136.681V35.4349Z" fill="#8ED16F"/>
<path opacity="0.1" d="M136.681 35.4349H146.501V35.2279H136.681V35.4349Z" fill="black"/>
<path d="M136.681 35.642H146.501V35.435H136.681V35.642Z" fill="#8ED16F"/>
<path d="M136.681 35.8472H146.501V35.6401H136.681V35.8472Z" fill="#8ED16F"/>
<path opacity="0.1" d="M136.681 35.8472H146.501V35.6401H136.681V35.8472Z" fill="black"/>
<path d="M136.681 32.7545H146.501V32.5474H136.681V32.7545Z" fill="#8ED16F"/>
<path d="M143.627 27.8518L151.177 34.123L151.31 33.9638L143.76 27.6926L143.627 27.8518Z" fill="#8ED16F"/>
<path d="M136.743 24.5524L144.294 30.8236L144.426 30.6644L136.876 24.3932L136.743 24.5524Z" fill="#8ED16F"/>
<path d="M136.681 32.9596H146.501V32.7525H136.681V32.9596Z" fill="#8ED16F"/>
<path opacity="0.1" d="M136.681 32.9596H146.501V32.7525H136.681V32.9596Z" fill="black"/>
<path d="M136.681 33.1686H146.501V32.9615H136.681V33.1686Z" fill="#8ED16F"/>
<path d="M136.681 33.3738H146.501V33.1667H136.681V33.3738Z" fill="#8ED16F"/>
<path opacity="0.1" d="M136.681 33.3738H146.501V33.1667H136.681V33.3738Z" fill="black"/>
<path d="M136.681 33.5789H146.501V33.3718H136.681V33.5789Z" fill="#8ED16F"/>
<path d="M136.681 33.786H146.501V33.5789H136.681V33.786Z" fill="#8ED16F"/>
<path opacity="0.1" d="M136.681 33.786H146.501V33.5789H136.681V33.786Z" fill="black"/>
<path d="M136.681 33.9911H146.501V33.7841H136.681V33.9911Z" fill="#8ED16F"/>
<path d="M136.681 34.1982H146.501V33.9912H136.681V34.1982Z" fill="#8ED16F"/>
<path opacity="0.1" d="M136.681 34.1982H146.501V33.9912H136.681V34.1982Z" fill="black"/>
<path d="M135.436 42.2383L138.955 42.8908L140.228 36.0421L136.71 35.3896L135.436 42.2383Z" fill="#8ED16F"/>
<path d="M138.602 39.2958C138.75 38.4993 138.547 37.7937 138.149 37.7199C137.751 37.646 137.308 38.2318 137.16 39.0283C137.012 39.8248 137.215 40.5303 137.613 40.6042C138.011 40.678 138.454 40.0922 138.602 39.2958Z" fill="#8ED16F"/>
<path opacity="0.1" d="M138.602 39.2958C138.75 38.4993 138.547 37.7937 138.149 37.7199C137.751 37.646 137.308 38.2318 137.16 39.0283C137.012 39.8248 137.215 40.5303 137.613 40.6042C138.011 40.678 138.454 40.0922 138.602 39.2958Z" fill="black"/>
<path d="M136.038 56.6941L139.557 57.3466L140.83 50.4979L137.312 49.8454L136.038 56.6941Z" fill="#8ED16F"/>
<path d="M139.202 53.75C139.35 52.9535 139.148 52.248 138.749 52.1741C138.351 52.1002 137.908 52.686 137.76 53.4825C137.612 54.279 137.815 54.9845 138.213 55.0584C138.611 55.1322 139.054 54.5464 139.202 53.75Z" fill="#8ED16F"/>
<path opacity="0.1" d="M139.202 53.75C139.35 52.9535 139.148 52.248 138.749 52.1741C138.351 52.1002 137.908 52.686 137.76 53.4825C137.612 54.279 137.815 54.9845 138.213 55.0584C138.611 55.1322 139.054 54.5464 139.202 53.75Z" fill="black"/>
<path d="M123.312 21.1621L121.609 24.3054L127.743 27.6206L129.446 24.4774L123.312 21.1621Z" fill="#8ED16F"/>
<path d="M127.417 25.2303C127.612 24.8743 127.191 24.2705 126.477 23.8817C125.763 23.4929 125.027 23.4662 124.832 23.8222C124.638 24.1782 125.059 24.782 125.773 25.1708C126.487 25.5596 127.223 25.5863 127.417 25.2303Z" fill="#8ED16F"/>
<path opacity="0.1" d="M127.417 25.2303C127.612 24.8743 127.191 24.2705 126.477 23.8817C125.763 23.4929 125.027 23.4662 124.832 23.8222C124.638 24.1782 125.059 24.782 125.773 25.1708C126.487 25.5596 127.223 25.5863 127.417 25.2303Z" fill="black"/>
<path d="M109.842 83.1937L108.139 86.3369L114.273 89.6522L115.977 86.5089L109.842 83.1937Z" fill="#8ED16F"/>
<path d="M113.33 87.163C113.523 86.8073 113.1 86.2063 112.387 85.8208C111.674 85.4352 110.939 85.4111 110.746 85.7668C110.553 86.1226 110.976 86.7236 111.689 87.1091C112.402 87.4947 113.137 87.5188 113.33 87.163Z" fill="#8ED16F"/>
<path opacity="0.1" d="M113.33 87.163C113.523 86.8073 113.1 86.2063 112.387 85.8208C111.674 85.4352 110.939 85.4111 110.746 85.7668C110.553 86.1226 110.976 86.7236 111.689 87.1091C112.402 87.4947 113.137 87.5188 113.33 87.163Z" fill="black"/>
<path d="M101.601 32.0032L99.8977 35.1464L106.032 38.4617L107.735 35.3184L101.601 32.0032Z" fill="#8ED16F"/>
<path d="M105.087 35.9697C105.28 35.6139 104.858 35.013 104.144 34.6274C103.431 34.2419 102.696 34.2177 102.503 34.5735C102.311 34.9292 102.733 35.5302 103.446 35.9157C104.159 36.3013 104.894 36.3254 105.087 35.9697Z" fill="#8ED16F"/>
<path opacity="0.1" d="M105.087 35.9697C105.28 35.6139 104.858 35.013 104.144 34.6274C103.431 34.2419 102.696 34.2177 102.503 34.5735C102.311 34.9292 102.733 35.5302 103.446 35.9157C104.159 36.3013 104.894 36.3254 105.087 35.9697Z" fill="black"/>
<path d="M111.93 21.1613L110.227 24.3046L116.361 27.6198L118.064 24.4766L111.93 21.1613Z" fill="#8ED16F"/>
<path d="M115.416 25.1278C115.608 24.7721 115.186 24.1711 114.473 23.7856C113.76 23.4 113.025 23.3759 112.832 23.7317C112.639 24.0874 113.061 24.6884 113.775 25.0739C114.488 25.4595 115.223 25.4836 115.416 25.1278Z" fill="#8ED16F"/>
<path opacity="0.1" d="M115.416 25.1278C115.608 24.7721 115.186 24.1711 114.473 23.7856C113.76 23.4 113.025 23.3759 112.832 23.7317C112.639 24.0874 113.061 24.6884 113.775 25.0739C114.488 25.4595 115.223 25.4836 115.416 25.1278Z" fill="black"/>
<path d="M122.242 33.954L118.685 34.3424L119.443 41.267L123.001 40.8785L122.242 33.954Z" fill="#8ED16F"/>
<path d="M120.955 39.0745C121.358 39.0305 121.613 38.3421 121.525 37.5368C121.437 36.7315 121.039 36.1143 120.636 36.1583C120.233 36.2023 119.978 36.8907 120.067 37.696C120.155 38.5013 120.553 39.1185 120.955 39.0745Z" fill="#8ED16F"/>
<path opacity="0.1" d="M120.955 39.0745C121.358 39.0305 121.613 38.3421 121.525 37.5368C121.437 36.7315 121.039 36.1143 120.636 36.1583C120.233 36.2023 119.978 36.8907 120.067 37.696C120.155 38.5013 120.553 39.1185 120.955 39.0745Z" fill="black"/>
<path d="M146.633 71.8715L143.076 72.2599L143.834 79.1845L147.391 78.796L146.633 71.8715Z" fill="#8ED16F"/>
<path d="M145.348 76.992C145.751 76.948 146.005 76.2596 145.917 75.4543C145.829 74.649 145.431 74.0318 145.029 74.0758C144.626 74.1198 144.371 74.8082 144.459 75.6135C144.547 76.4188 144.945 77.036 145.348 76.992Z" fill="#8ED16F"/>
<path opacity="0.1" d="M145.348 76.992C145.751 76.948 146.005 76.2596 145.917 75.4543C145.829 74.649 145.431 74.0318 145.029 74.0758C144.626 74.1198 144.371 74.8082 144.459 75.6135C144.547 76.4188 144.945 77.036 145.348 76.992Z" fill="black"/>
<path d="M108.312 48.6635L106.609 51.8068L112.743 55.122L114.447 51.9788L108.312 48.6635Z" fill="#8ED16F"/>
<path d="M111.797 52.6327C111.99 52.2769 111.568 51.6759 110.854 51.2904C110.141 50.9049 109.406 50.8807 109.213 51.2365C109.021 51.5922 109.443 52.1932 110.156 52.5787C110.869 52.9643 111.604 52.9884 111.797 52.6327Z" fill="#8ED16F"/>
<path opacity="0.1" d="M111.797 52.6327C111.99 52.2769 111.568 51.6759 110.854 51.2904C110.141 50.9049 109.406 50.8807 109.213 51.2365C109.021 51.5922 109.443 52.1932 110.156 52.5787C110.869 52.9643 111.604 52.9884 111.797 52.6327Z" fill="black"/>
<path d="M92.8321 44.2482L91.1289 47.3914L97.2633 50.7067L98.9666 47.5634L92.8321 44.2482Z" fill="#8ED16F"/>
<path d="M96.8274 48.426C97.0218 48.0701 96.6008 47.4663 95.8869 47.0774C95.1731 46.6886 94.4368 46.662 94.2424 47.0179C94.048 47.3739 94.469 47.9777 95.1829 48.3665C95.8967 48.7554 96.633 48.782 96.8274 48.426Z" fill="#8ED16F"/>
<path opacity="0.1" d="M96.8274 48.426C97.0218 48.0701 96.6008 47.4663 95.8869 47.0774C95.1731 46.6886 94.4368 46.662 94.2424 47.0179C94.048 47.3739 94.469 47.9777 95.1829 48.3665C95.8967 48.7554 96.633 48.782 96.8274 48.426Z" fill="black"/>
<path d="M87.8741 118.586L86.1709 121.729L92.3053 125.044L94.0086 121.901L87.8741 118.586Z" fill="#8ED16F"/>
<path d="M91.3598 122.553C91.5525 122.198 91.1305 121.597 90.4171 121.211C89.7037 120.826 88.9691 120.801 88.7763 121.157C88.5835 121.513 89.0056 122.114 89.719 122.499C90.4324 122.885 91.167 122.909 91.3598 122.553Z" fill="#8ED16F"/>
<path opacity="0.1" d="M91.3598 122.553C91.5525 122.198 91.1305 121.597 90.4171 121.211C89.7037 120.826 88.9691 120.801 88.7763 121.157C88.5835 121.513 89.0056 122.114 89.719 122.499C90.4324 122.885 91.167 122.909 91.3598 122.553Z" fill="black"/>
<path d="M83.4111 119.798L82.7583 123.312L89.6163 124.582L90.2691 121.068L83.4111 119.798Z" fill="#8ED16F"/>
<path opacity="0.05" d="M83.4111 119.798L82.7583 123.312L89.6163 124.582L90.2691 121.068L83.4111 119.798Z" fill="black"/>
<path d="M87.9507 122.502C88.0245 122.104 87.4379 121.662 86.6404 121.514C85.8428 121.366 85.1364 121.569 85.0625 121.967C84.9886 122.365 85.5753 122.807 86.3728 122.955C87.1704 123.102 87.8768 122.9 87.9507 122.502Z" fill="#8ED16F"/>
<path opacity="0.1" d="M87.9507 122.502C88.0245 122.104 87.4379 121.662 86.6404 121.514C85.8428 121.366 85.1364 121.569 85.0625 121.967C84.9886 122.365 85.5753 122.807 86.3728 122.955C87.1704 123.102 87.8768 122.9 87.9507 122.502Z" fill="black"/>
<path d="M84.0534 121.905L83.4006 125.419L90.2587 126.69L90.9115 123.175L84.0534 121.905Z" fill="#8ED16F"/>
<path d="M88.5913 124.609C88.6652 124.212 88.0786 123.769 87.281 123.622C86.4834 123.474 85.777 123.676 85.7031 124.074C85.6292 124.472 86.2159 124.914 87.0134 125.062C87.811 125.21 88.5174 125.007 88.5913 124.609Z" fill="#8ED16F"/>
<path opacity="0.1" d="M88.5913 124.609C88.6652 124.212 88.0786 123.769 87.281 123.622C86.4834 123.474 85.777 123.676 85.7031 124.074C85.6292 124.472 86.2159 124.914 87.0134 125.062C87.811 125.21 88.5174 125.007 88.5913 124.609Z" fill="black"/>
<path d="M95.1102 127.62L93.407 130.764L99.5414 134.079L101.245 130.936L95.1102 127.62Z" fill="#8ED16F"/>
<path d="M98.5978 131.588C98.7906 131.232 98.3685 130.631 97.6551 130.245C96.9417 129.86 96.2071 129.836 96.0143 130.192C95.8216 130.547 96.2436 131.148 96.957 131.534C97.6704 131.919 98.405 131.943 98.5978 131.588Z" fill="#8ED16F"/>
<path opacity="0.1" d="M98.5978 131.588C98.7906 131.232 98.3685 130.631 97.6551 130.245C96.9417 129.86 96.2071 129.836 96.0143 130.192C95.8216 130.547 96.2436 131.148 96.957 131.534C97.6704 131.919 98.405 131.943 98.5978 131.588Z" fill="black"/>
<path d="M90.6484 128.829L89.9956 132.344L96.8536 133.614L97.5064 130.1L90.6484 128.829Z" fill="#8ED16F"/>
<path opacity="0.05" d="M90.6484 128.829L89.9956 132.344L96.8536 133.614L97.5064 130.1L90.6484 128.829Z" fill="black"/>
<path d="M95.1863 131.534C95.2602 131.136 94.6735 130.694 93.876 130.546C93.0784 130.398 92.372 130.601 92.2981 130.999C92.2242 131.396 92.8109 131.839 93.6084 131.986C94.406 132.134 95.1124 131.932 95.1863 131.534Z" fill="#8ED16F"/>
<path opacity="0.1" d="M95.1863 131.534C95.2602 131.136 94.6735 130.694 93.876 130.546C93.0784 130.398 92.372 130.601 92.2981 130.999C92.2242 131.396 92.8109 131.839 93.6084 131.986C94.406 132.134 95.1124 131.932 95.1863 131.534Z" fill="black"/>
<path d="M91.2907 130.939L90.6379 134.453L97.496 135.724L98.1488 132.21L91.2907 130.939Z" fill="#8ED16F"/>
<path d="M95.8303 133.643C95.9042 133.246 95.3176 132.803 94.52 132.656C93.7225 132.508 93.016 132.711 92.9421 133.108C92.8682 133.506 93.4549 133.948 94.2525 134.096C95.05 134.244 95.7564 134.041 95.8303 133.643Z" fill="#8ED16F"/>
<path opacity="0.1" d="M95.8303 133.643C95.9042 133.246 95.3176 132.803 94.52 132.656C93.7225 132.508 93.016 132.711 92.9421 133.108C92.8682 133.506 93.4549 133.948 94.2525 134.096C95.05 134.244 95.7564 134.041 95.8303 133.643Z" fill="black"/>
<path d="M105.967 121.798L104.264 124.941L110.398 128.257L112.101 125.113L105.967 121.798Z" fill="#8ED16F"/>
<path d="M109.451 125.765C109.644 125.409 109.222 124.808 108.508 124.422C107.795 124.037 107.06 124.013 106.867 124.368C106.675 124.724 107.097 125.325 107.81 125.711C108.523 126.096 109.258 126.12 109.451 125.765Z" fill="#8ED16F"/>
<path opacity="0.1" d="M109.451 125.765C109.644 125.409 109.222 124.808 108.508 124.422C107.795 124.037 107.06 124.013 106.867 124.368C106.675 124.724 107.097 125.325 107.81 125.711C108.523 126.096 109.258 126.12 109.451 125.765Z" fill="black"/>
<path d="M101.504 123.008L100.851 126.522L107.709 127.793L108.362 124.279L101.504 123.008Z" fill="#8ED16F"/>
<path opacity="0.05" d="M101.504 123.008L100.851 126.522L107.709 127.793L108.362 124.279L101.504 123.008Z" fill="black"/>
<path d="M106.042 125.713C106.116 125.315 105.529 124.873 104.732 124.725C103.934 124.577 103.228 124.78 103.154 125.178C103.08 125.575 103.667 126.018 104.464 126.165C105.262 126.313 105.968 126.111 106.042 125.713Z" fill="#8ED16F"/>
<path opacity="0.1" d="M106.042 125.713C106.116 125.315 105.529 124.873 104.732 124.725C103.934 124.577 103.228 124.78 103.154 125.178C103.08 125.575 103.667 126.018 104.464 126.165C105.262 126.313 105.968 126.111 106.042 125.713Z" fill="black"/>
<path d="M102.146 125.118L101.494 128.632L108.352 129.902L109.005 126.388L102.146 125.118Z" fill="#8ED16F"/>
<path d="M106.686 127.822C106.76 127.425 106.173 126.982 105.376 126.835C104.578 126.687 103.872 126.89 103.798 127.287C103.724 127.685 104.311 128.127 105.108 128.275C105.906 128.423 106.612 128.22 106.686 127.822Z" fill="#8ED16F"/>
<path opacity="0.1" d="M106.686 127.822C106.76 127.425 106.173 126.982 105.376 126.835C104.578 126.687 103.872 126.89 103.798 127.287C103.724 127.685 104.311 128.127 105.108 128.275C105.906 128.423 106.612 128.22 106.686 127.822Z" fill="black"/>
</g>
<defs>
<linearGradient id="paint0_linear" x1="88.6465" y1="118.986" x2="88.6465" y2="50.8985" gradientUnits="userSpaceOnUse">
<stop stop-color="#808080" stop-opacity="0.25"/>
<stop offset="0.54" stop-color="#808080" stop-opacity="0.12"/>
<stop offset="1" stop-color="#808080" stop-opacity="0.1"/>
</linearGradient>
<linearGradient id="paint1_linear" x1="-123355" y1="80261.2" x2="-123355" y2="21792.1" gradientUnits="userSpaceOnUse">
<stop stop-color="#808080" stop-opacity="0.25"/>
<stop offset="0.54" stop-color="#808080" stop-opacity="0.12"/>
<stop offset="1" stop-color="#808080" stop-opacity="0.1"/>
</linearGradient>
<clipPath id="clip0">
<rect width="187" height="137" fill="white"/>
</clipPath>
</defs>
</svg>
